<svg width="581" height="383" viewBox="0 0 581 383" fill="none" xmlns="http://www.w3.org/2000/svg">
<g clip-path="url(#clip0)">
<g opacity="0.2">
<path d="M170.895 383C265.278 383 341.79 377.833 341.79 371.459C341.79 365.085 265.278 359.917 170.895 359.917C76.5123 359.917 0 365.085 0 371.459C0 377.833 76.5123 383 170.895 383Z" fill="#C5C5C5"/>
</g>
<path d="M225.481 251.429C219.812 246.393 216.453 239.049 216.873 231.494C217.083 228.766 216.873 226.248 216.243 223.52C214.983 217.435 211.834 212.189 207.635 208.412C203.646 204.844 201.337 199.598 200.497 194.352C200.497 193.933 200.287 193.513 200.287 193.093C197.768 183.021 187.691 176.516 177.403 178.824C167.116 181.132 160.398 191.205 162.707 201.487C162.707 201.907 162.917 202.117 162.917 202.536C164.387 207.782 163.757 213.238 161.657 218.064C159.558 223.311 158.718 229.186 159.978 235.062C160.608 237.79 161.448 240.308 162.707 242.616C166.276 249.331 166.066 257.305 162.917 264.23C158.718 273.463 157.878 284.165 161.867 294.867C167.956 311.024 183.912 321.516 201.337 320.467C226.111 318.998 242.906 295.916 238.077 272.623C236.188 264.23 231.569 256.885 225.481 251.429Z" fill="#D7D7D7"/>
<path d="M193.359 237.79C192.939 236.53 191.47 235.901 190.21 236.321C188.95 236.74 188.32 238.209 188.74 239.468C198.398 267.377 203.646 293.817 204.696 320.677C206.376 320.467 208.055 320.047 209.525 319.628C208.265 292.558 203.017 265.908 193.359 237.79Z" fill="white"/>
<path d="M193.149 371.459H227.58L235.138 330.959H185.801L193.149 371.459Z" fill="#605E61"/>
<path d="M188.74 251.429C194.409 246.393 197.768 239.049 197.348 231.494C197.138 228.766 197.348 226.248 197.978 223.52C199.238 217.435 202.387 212.189 206.586 208.412C210.575 204.844 212.884 199.598 213.724 194.352C213.724 193.933 213.934 193.513 213.934 193.093C216.453 183.021 226.53 176.516 236.818 178.824C247.105 181.132 253.823 191.205 251.514 201.487C251.514 201.907 251.304 202.117 251.304 202.536C249.834 207.782 250.464 213.238 252.564 218.064C254.663 223.311 255.503 229.186 254.243 235.062C253.613 237.79 252.774 240.308 251.514 242.616C247.945 249.331 248.155 257.305 251.304 264.23C255.503 273.463 256.343 284.165 252.354 294.867C246.265 311.024 230.309 321.516 212.884 320.467C188.111 318.998 171.315 295.916 176.144 272.623C178.033 264.23 182.652 256.885 188.74 251.429Z" fill="#F5F5F5"/>
<path d="M221.072 237.79C221.492 236.53 222.961 235.901 224.221 236.321C225.481 236.74 226.111 238.209 225.691 239.468C216.033 267.377 210.785 293.817 209.735 320.677C208.055 320.467 206.376 320.047 204.906 319.628C205.956 292.558 211.415 265.908 221.072 237.79Z" fill="white"/>
<path d="M211.835 368.101H206.796C204.487 350.894 203.857 334.317 204.696 317.949C206.376 318.579 207.846 318.998 209.525 319.418C208.895 335.366 209.735 351.524 211.835 368.101Z" fill="#605E61"/>
<path d="M255.76 128.908L251.068 130.05L310.055 372.058L314.747 370.916L255.76 128.908Z" fill="#847E8F"/>
<path d="M210.299 128.826L151.312 370.834L156.004 371.977L214.99 129.969L210.299 128.826Z" fill="#847E8F"/>
<path d="M144.965 183.164L321.109 183.164V48.0258L144.965 48.0258L144.965 183.164Z" fill="#F6F6F6"/>
<path d="M296.367 112.733H311.063V98.044H296.367V112.733Z" fill="#C2081E"/>
<path d="M307.779 102.442H299.381V104.75H307.779V102.442Z" fill="white"/>
<path d="M307.779 106.848H299.381V109.157H307.779V106.848Z" fill="white"/>
<path d="M279.576 112.733H294.272V98.044H279.576V112.733Z" fill="#C2081E"/>
<path d="M290.984 102.442H282.586V104.75H290.984V102.442Z" fill="white"/>
<path d="M290.984 106.848H282.586V109.157H290.984V106.848Z" fill="white"/>
<path d="M262.786 112.733H277.482V98.044H262.786V112.733Z" fill="#C2081E"/>
<path d="M274.188 102.442H265.79V104.75H274.188V102.442Z" fill="white"/>
<path d="M274.188 106.848H265.79V109.157H274.188V106.848Z" fill="white"/>
<path d="M262.781 95.0917H311.068V63.6154L262.781 63.6154V95.0917Z" fill="white"/>
<path d="M302.951 78.1H271.039V80.4082H302.951V78.1Z" fill="#396E75"/>
<path d="M302.951 85.864H271.039V88.1723H302.951V85.864Z" fill="#396E75"/>
<path d="M242.585 112.733H257.281V98.044H242.585V112.733Z" fill="#C5C5C5"/>
<path d="M254.034 102.442H245.636V104.75H254.034V102.442Z" fill="white"/>
<path d="M254.034 106.848H245.636V109.157H254.034V106.848Z" fill="white"/>
<path d="M225.585 112.733H240.281V98.044H225.585V112.733Z" fill="#C5C5C5"/>
<path d="M237.238 102.442H228.84V104.75H237.238V102.442Z" fill="white"/>
<path d="M237.238 106.848H228.84V109.157H237.238V106.848Z" fill="white"/>
<path d="M208.794 112.733H223.49V98.044H208.794V112.733Z" fill="#C5C5C5"/>
<path d="M220.442 102.442H212.044V104.75H220.442V102.442Z" fill="white"/>
<path d="M220.442 106.848H212.044V109.157H220.442V106.848Z" fill="white"/>
<path d="M208.789 95.0917H257.076V63.6154L208.789 63.6154V95.0917Z" fill="white"/>
<path d="M248.995 78.1H217.083V80.4082H248.995V78.1Z" fill="#396E75"/>
<path d="M248.995 85.864H217.083V88.1723H248.995V85.864Z" fill="#396E75"/>
<path d="M188.593 112.733H203.289V98.044H188.593V112.733Z" fill="#C2081E"/>
<path d="M200.077 102.442H191.68V104.75H200.077V102.442Z" fill="white"/>
<path d="M200.077 106.848H191.68V109.157H200.077V106.848Z" fill="white"/>
<path d="M171.802 112.733H186.499V98.044H171.802V112.733Z" fill="#C2081E"/>
<path d="M183.282 102.442H174.884V104.75H183.282V102.442Z" fill="white"/>
<path d="M183.282 106.848H174.884V109.157H183.282V106.848Z" fill="white"/>
<path d="M155.012 112.733H169.708V98.044H155.012V112.733Z" fill="#C2081E"/>
<path d="M166.487 102.442H158.089V104.75H166.487V102.442Z" fill="white"/>
<path d="M166.487 106.848H158.089V109.157H166.487V106.848Z" fill="white"/>
<path d="M155.007 95.0917H203.294V63.6154L155.007 63.6154V95.0917Z" fill="white"/>
<path d="M195.04 78.1H163.128V80.4082H195.04V78.1Z" fill="#396E75"/>
<path d="M195.04 85.864H163.128V88.1723H195.04V85.864Z" fill="#396E75"/>
<path d="M296.367 167.396H311.063V152.707H296.367V167.396Z" fill="#C5C5C5"/>
<path d="M307.779 157.21H299.381V159.518H307.779V157.21Z" fill="white"/>
<path d="M307.779 161.617H299.381V163.925H307.779V161.617Z" fill="white"/>
<path d="M279.576 167.396H294.272V152.707H279.576V167.396Z" fill="#C5C5C5"/>
<path d="M290.984 157.21H282.586V159.518H290.984V157.21Z" fill="white"/>
<path d="M290.984 161.617H282.586V163.925H290.984V161.617Z" fill="white"/>
<path d="M262.786 167.396H277.482V152.707H262.786V167.396Z" fill="#C5C5C5"/>
<path d="M274.188 157.21H265.79V159.518H274.188V157.21Z" fill="white"/>
<path d="M274.188 161.617H265.79V163.925H274.188V161.617Z" fill="white"/>
<path d="M262.781 149.755H311.068V118.279H262.781V149.755Z" fill="white"/>
<path d="M302.951 132.869H271.039V135.177H302.951V132.869Z" fill="#C5C5C5"/>
<path d="M302.951 140.423H271.039V142.731H302.951V140.423Z" fill="#C5C5C5"/>
<path d="M242.585 167.396H257.281V152.707H242.585V167.396Z" fill="#C5C5C5"/>
<path d="M254.034 157.21H245.636V159.518H254.034V157.21Z" fill="white"/>
<path d="M254.034 161.617H245.636V163.925H254.034V161.617Z" fill="white"/>
<path d="M225.585 167.396H240.281V152.707H225.585V167.396Z" fill="#C5C5C5"/>
<path d="M237.238 157.21H228.84V159.518H237.238V157.21Z" fill="white"/>
<path d="M237.238 161.617H228.84V163.925H237.238V161.617Z" fill="white"/>
<path d="M208.794 167.396H223.49V152.707H208.794V167.396Z" fill="#C5C5C5"/>
<path d="M220.442 157.21H212.044V159.518H220.442V157.21Z" fill="white"/>
<path d="M220.442 161.617H212.044V163.925H220.442V161.617Z" fill="white"/>
<path d="M208.789 149.755H257.076V118.279H208.789V149.755Z" fill="white"/>
<path d="M248.995 132.869H217.083V135.177H248.995V132.869Z" fill="#C5C5C5"/>
<path d="M248.995 140.423H217.083V142.731H248.995V140.423Z" fill="#C5C5C5"/>
<path d="M188.593 167.396H203.289V152.707H188.593V167.396Z" fill="#396E75"/>
<path d="M200.077 157.21H191.68V159.518H200.077V157.21Z" fill="white"/>
<path d="M200.077 161.617H191.68V163.925H200.077V161.617Z" fill="white"/>
<path d="M171.802 167.396H186.499V152.707H171.802V167.396Z" fill="#396E75"/>
<path d="M183.282 157.21H174.884V159.518H183.282V157.21Z" fill="white"/>
<path d="M183.282 161.617H174.884V163.925H183.282V161.617Z" fill="white"/>
<path d="M155.012 167.396H169.708V152.707H155.012V167.396Z" fill="#396E75"/>
<path d="M166.487 157.21H158.089V159.518H166.487V157.21Z" fill="white"/>
<path d="M166.487 161.617H158.089V163.925H166.487V161.617Z" fill="white"/>
<path d="M155.007 149.755H203.294V118.279H155.007V149.755Z" fill="white"/>
<path d="M195.04 132.869H163.128V135.177H195.04V132.869Z" fill="#C5C5C5"/>
<path d="M195.04 140.423H163.128V142.731H195.04V140.423Z" fill="#C5C5C5"/>
<path d="M190.84 153.643C191.26 153.013 191.47 152.174 191.679 151.545C192.099 147.348 190.21 143.78 185.801 142.731C151.16 134.547 130.586 105.379 115.889 74.9524C114 71.1752 103.713 77.4705 100.563 79.3591C97.4142 81.2476 95.1048 85.2346 96.7844 89.2216C113.16 124.895 144.652 149.236 182.862 157.63C186.221 158.05 189.16 156.371 190.84 153.643Z" fill="#EEBCA4"/>
<path d="M90.486 76.4213C90.276 72.4343 106.022 63.6209 110.011 65.7193C116.939 69.4965 128.696 116.081 172.154 138.115L166.276 154.063C117.569 137.905 91.1158 93.2086 90.486 76.4213Z" fill="#C1C3C5"/>
<path d="M36.5998 324.655L31.1255 355.44L43.9416 357.717L49.4159 326.932L36.5998 324.655Z" fill="#EEBCA4"/>
<path d="M30.8616 352.992C35.4804 353.202 46.8174 355.301 46.8174 355.301C46.8174 355.301 59.834 362.225 61.3036 366.842C62.3533 369.78 57.7346 370.829 55.4252 370.199L28.3423 362.435L30.8616 352.992Z" fill="#605E61"/>
<path d="M30.8618 352.992C30.8618 352.992 40.5193 358.448 46.8176 355.301C46.6077 355.301 44.7182 354.042 44.5082 354.042C44.5082 354.042 37.1602 347.956 32.3314 347.746L30.8618 352.992Z" fill="#EEBCA4"/>
<path d="M49.9661 349.845C61.723 291.929 77.4689 211.14 78.9385 153.643C65.502 152.594 52.0656 151.964 38.6291 150.495C36.5297 212.189 36.7396 285.843 28.7617 346.488C28.9717 346.488 44.9275 349.425 49.9661 349.845Z" fill="#292929"/>
<path d="M86.9934 327.206L82.8472 357.35L95.7427 359.122L99.8889 328.978L86.9934 327.206Z" fill="#EEBCA4"/>
<path d="M82.5081 354.671C87.1269 354.881 98.4639 356.77 98.4639 356.77C98.4639 356.77 111.48 363.484 113.16 367.891C114.21 370.619 109.591 371.878 107.282 371.249L79.9888 364.114L82.5081 354.671Z" fill="#605E61"/>
<path d="M82.5083 354.671C82.5083 354.671 92.3757 359.917 98.4641 356.769C98.2542 356.769 96.3647 355.51 96.1547 355.51C96.1547 355.51 88.5967 349.635 83.9779 349.425L82.5083 354.671Z" fill="#EEBCA4"/>
<path d="M101.613 348.376C112.53 297.594 119.878 201.067 112.95 149.656C100.773 150.495 84.8174 150.286 72.4307 150.915C79.3588 201.907 87.7566 296.545 80.4086 346.697C87.5467 347.117 94.4749 347.746 101.613 348.376Z" fill="#292929"/>
<path d="M40.7291 79.9887C41.5689 56.0667 68.6518 55.2273 86.4971 56.2766C102.033 57.1159 117.779 64.6702 117.149 82.7166C117.149 82.7166 119.458 119.019 120.928 154.902C121.348 166.443 121.348 167.283 121.348 167.283C121.348 167.283 103.293 173.578 35.9004 166.234L40.7291 79.9887Z" fill="#E6E6E6"/>
<path d="M83.5581 62.5717C86.7073 62.5717 89.4366 60.0536 89.4366 56.906L89.6465 43.686L77.4697 39.9088L78.0996 56.6961C77.8896 59.8438 80.4089 62.3619 83.5581 62.5717Z" fill="#EEBCA4"/>
<path d="M80.8285 39.4891L89.4362 40.3285V55.8568C82.718 56.0666 77.6793 49.3517 77.4694 44.1057C77.2594 43.0564 80.8285 39.4891 80.8285 39.4891Z" fill="#D59D83"/>
<path d="M87.3369 30.0463L95.9447 29.207C98.254 28.9971 100.144 30.6758 100.353 32.7743C100.563 35.0825 98.8839 36.9711 96.7844 37.1809L87.5469 38.0203L87.3369 30.0463Z" fill="#D49D83"/>
<path d="M86.0773 38.2301L77.4696 39.0695C75.1602 39.2793 73.2707 37.6006 73.0607 35.5021C72.8508 33.1939 74.5303 31.3053 76.6298 31.0955L85.8674 30.2561L86.0773 38.2301Z" fill="#EEBCA4"/>
<path d="M89.2263 50.401C95.5247 49.7714 100.143 44.1057 99.5136 37.8105L98.2539 23.7511C97.6241 17.4558 91.9556 12.8393 85.6573 13.4688C79.3589 14.0984 74.7401 19.7641 75.37 26.0593L76.6296 40.1187C77.2595 46.2041 82.928 51.0305 89.2263 50.401Z" fill="#EEBCA4"/>
<path d="M73.9004 25.8495C74.1104 21.2329 74.5303 17.8755 78.0993 14.9377C81.8783 11.9999 93.4253 10.7409 98.254 13.4688C100.773 14.9377 104.132 17.0361 102.033 20.3936C98.0441 26.8987 77.2596 15.3574 78.7292 34.0333C79.1491 38.2301 91.7457 35.712 95.7347 35.2923C101.823 34.6628 102.873 42.0073 101.823 45.7844C99.9336 52.4994 93.8452 53.9682 87.5468 52.2895C75.9999 48.932 73.2706 36.7612 73.9004 25.8495Z" fill="#393941"/>
<path d="M98.0442 39.2794C98.4641 41.1679 91.326 41.5876 89.6465 41.7975C88.3868 41.7975 86.4973 42.0073 86.2873 40.9581C86.0774 40.1187 88.3868 39.4892 89.4365 39.0695C90.6962 38.6498 92.1658 38.44 93.6354 38.44C95.105 38.2302 97.6244 38.0203 98.0442 39.2794Z" fill="#EEBCA4"/>
<path d="M11.1268 180.713C11.9666 180.922 12.5965 180.922 13.4362 180.713C17.6351 179.663 20.3644 176.726 19.9445 172.319C16.7953 137.066 37.9998 108.317 62.3534 84.8149C65.2926 81.8771 56.055 73.9032 53.3257 71.5949C50.5965 69.2866 45.9777 68.2374 42.8285 71.1752C14.276 97.8251 1.04949 135.597 5.24839 174.417C5.45833 177.775 7.97767 179.873 11.1268 180.713Z" fill="#EEBCA4"/>
<path d="M52.6959 60.893C56.2649 59.4241 69.9113 71.5949 68.8616 76.0016C67.392 83.7657 30.6517 108.737 19.9445 157.84L2.93896 157.21C3.14891 106.219 37.16 66.7685 52.6959 60.893Z" fill="#C1C3C5"/>
<path d="M72.6406 62.5718H93.6351V57.1159L89.6462 54.1781L84.3975 60.6832L77.6793 53.3387L72.6406 56.2765V62.5718Z" fill="#C1C3C5"/>
<path d="M80.1984 65.2996L82.2979 62.7815C83.7675 62.7815 84.8172 62.7815 86.0769 62.9913L87.9664 65.2996C87.3365 67.1882 86.9166 68.4472 86.4968 70.126C87.1266 94.0479 89.226 117.97 92.7951 141.472C91.5354 147.558 90.2758 153.853 89.0161 159.938C86.2868 154.272 83.7675 148.397 81.0382 142.521C79.7785 118.18 79.7785 94.0479 81.2481 69.9161C81.0382 68.6571 80.6183 66.9783 80.1984 65.2996Z" fill="#C2081E"/>
</g>
<g clip-path="url(#clip1)">
<path opacity="0.2" d="M489.381 383C539.981 383 581 378.894 581 373.83C581 368.765 539.981 364.659 489.381 364.659C438.781 364.659 397.762 368.765 397.762 373.83C397.762 378.894 438.781 383 489.381 383Z" fill="#C5C5C5"/>
<path d="M476.002 86.1902C476.002 74.6577 467.505 70.2066 455.164 79.3112C433.922 95.0925 456.378 131.713 383.547 110.064C380.513 116.134 378.894 120.585 377.276 125.441C419.761 141.829 475.8 135.355 476.002 86.1902Z" fill="#244A4F"/>
<path d="M523.252 330.564L510.902 332.759L516.177 362.441L528.527 360.246L523.252 330.564Z" fill="#EEBCA4"/>
<path d="M528.805 357.709C524.354 357.912 513.429 359.935 513.429 359.935C513.429 359.935 500.886 366.612 499.47 371.063C498.458 373.895 502.909 374.907 505.135 374.3L531.232 366.814L528.805 357.709Z" fill="#605E61"/>
<path d="M528.805 357.709C528.805 357.709 519.498 362.97 513.429 359.935C513.632 359.935 515.452 358.721 515.655 358.721C515.655 358.721 522.735 352.854 527.388 352.651C527.388 352.854 528.805 357.709 528.805 357.709Z" fill="#EEBCA4"/>
<path d="M510.395 354.877C499.065 299.035 483.892 221.141 482.476 165.704C495.424 164.49 508.371 164.085 521.319 162.669C523.14 222.152 523.14 293.168 530.828 351.64C530.625 351.64 515.25 354.27 510.395 354.877Z" fill="#292929"/>
<path d="M474.776 332.907L462.35 334.614L466.342 363.678L478.768 361.971L474.776 332.907Z" fill="#EEBCA4"/>
<path d="M479.037 359.328C474.586 359.53 463.662 361.351 463.662 361.351C463.662 361.351 451.119 367.826 449.5 372.075C448.489 374.705 452.94 375.919 455.165 375.312L481.465 368.433L479.037 359.328Z" fill="#605E61"/>
<path d="M479.037 359.328C479.037 359.328 469.529 364.386 463.662 361.351C463.864 361.351 465.685 360.137 465.887 360.137C465.887 360.137 473.17 354.472 477.621 354.27L479.037 359.328Z" fill="#EEBCA4"/>
<path d="M460.627 353.461C450.107 304.498 443.027 211.429 449.703 161.859C461.437 162.669 476.812 162.466 488.748 163.073C482.072 212.238 473.98 303.487 481.06 351.842C474.182 352.247 467.303 352.854 460.627 353.461Z" fill="#292929"/>
<path d="M519.296 94.4854C518.285 71.4205 492.389 70.8135 475.193 71.8251C460.222 72.6344 445.049 79.9181 445.656 97.318C445.656 97.318 443.431 132.32 442.015 166.918C441.408 177.843 441.408 178.652 441.408 178.652C441.408 178.652 458.806 184.722 523.747 177.641L519.296 94.4854Z" fill="#396E75"/>
<path d="M478.026 77.6925C474.991 77.6925 472.361 75.2646 472.361 72.2297L472.159 59.4833L483.893 55.8414L483.286 72.0274C483.488 75.2646 481.06 77.6925 478.026 77.6925Z" fill="#EEBCA4"/>
<path d="M480.453 55.6392L472.159 56.4485V71.4205C478.633 71.6228 483.488 65.1484 483.69 60.0903C484.095 59.0787 480.453 55.6392 480.453 55.6392Z" fill="#E1B19A"/>
<path d="M474.182 46.3323L465.887 45.523C463.662 45.3206 461.841 46.9392 461.639 48.9625C461.436 51.1881 463.055 53.009 465.078 53.2113L473.979 54.0206L474.182 46.3323Z" fill="#D5A58E"/>
<path d="M475.598 54.4252L483.892 55.2345C486.118 55.4368 487.938 53.8182 488.141 51.795C488.343 49.5694 486.725 47.7485 484.701 47.5462L476.002 46.5345L475.598 54.4252Z" fill="#EEBCA4"/>
<path d="M472.563 65.9577C466.494 65.3507 462.043 59.888 462.65 53.8182L463.864 40.2625C464.471 34.1928 469.933 29.7416 476.002 30.3486C482.072 30.9556 486.522 36.4183 485.915 42.4881L484.702 56.0438C484.095 62.1135 478.632 66.5647 472.563 65.9577Z" fill="#EEBCA4"/>
<path d="M486.523 48.5578H486.725C486.725 46.7369 486.725 44.916 486.725 43.0951C486.523 38.6439 485.916 35.6091 482.679 32.5742C477.419 27.9207 469.933 27.5161 463.864 30.551C461.436 31.7649 458.402 33.9905 460.425 37.2277C463.864 42.6904 479.846 34.5974 482.476 45.1183C482.881 47.1416 484.5 48.5578 486.523 48.5578Z" fill="#393941"/>
<path d="M488.545 77.6925H468.314V72.6344L472.158 69.5995L477.216 76.0739L483.69 68.9926L488.545 71.6228V77.6925Z" fill="#4F8E97"/>
<path d="M481.262 80.5251L479.239 78.0972C477.823 78.0972 476.812 78.0972 475.598 78.2995L473.777 80.5251C474.384 82.346 474.789 83.5599 475.193 85.1785C474.586 108.243 472.563 131.308 469.124 153.969C470.338 159.836 471.552 165.906 472.766 171.773C475.396 166.311 477.823 160.646 480.453 154.98C481.667 131.511 481.667 108.244 480.251 84.9762C480.453 83.5599 480.858 81.9413 481.262 80.5251Z" fill="#1E2829"/>
<path d="M344.902 134.141H413.888L404.987 83.5599H336L344.902 134.141Z" fill="#989393"/>
<path d="M381.722 128.881H450.911L449.899 134.141H381.722V128.881Z" fill="#989393"/>
<path d="M341.063 134.141H410.05L401.149 83.5599H332.162L341.063 134.141Z" fill="#C5C5C5"/>
<path d="M363.722 108.446C364.329 111.683 367.566 114.516 370.6 114.516C373.837 114.516 375.86 111.885 375.253 108.446C374.646 105.209 371.612 102.376 368.375 102.376C365.138 102.578 362.912 105.209 363.722 108.446Z" fill="white"/>
<path d="M404.183 141.829C403.981 141.222 403.981 140.413 403.981 139.806C404.386 135.962 408.229 133.129 412.073 133.129C453.142 134.141 477.621 124.429 497.043 91.0459C499.47 86.7971 506.551 93.4738 508.776 96.104C511.002 98.7342 513.025 102.376 509.99 106.018C481.869 140.008 454.356 149.72 410.657 147.292C407.622 147.09 404.992 144.662 404.183 141.829Z" fill="#EEBCA4"/>
<path d="M516.869 94.6877C517.88 91.0459 505.539 78.9064 501.291 79.9181C494.008 81.739 486.725 124.834 425.628 131.915L427.246 148.304C493.603 149.518 512.216 110.267 516.869 94.6877Z" fill="#244A4F"/>
<path d="M536.492 0C516.868 0 501.088 11.1278 501.088 24.6836C501.088 33.3835 507.36 40.8695 516.868 45.3207C512.62 50.1764 507.967 54.8299 503.111 59.0787C513.429 59.0787 523.545 55.4369 531.637 49.3671C533.255 49.5695 534.874 49.5695 536.492 49.5695C556.116 49.5695 571.896 38.4416 571.896 24.8859C571.896 11.3302 556.116 0 536.492 0Z" fill="#F7F7F7"/>
<g opacity="0.2">
<path d="M520.51 29.5394C522.856 29.5394 524.758 27.6371 524.758 25.2906C524.758 22.944 522.856 21.0417 520.51 21.0417C518.163 21.0417 516.261 22.944 516.261 25.2906C516.261 27.6371 518.163 29.5394 520.51 29.5394Z" fill="#847E8F"/>
<path d="M536.492 29.5394C538.838 29.5394 540.741 27.6371 540.741 25.2906C540.741 22.944 538.838 21.0417 536.492 21.0417C534.146 21.0417 532.244 22.944 532.244 25.2906C532.244 27.6371 534.146 29.5394 536.492 29.5394Z" fill="#847E8F"/>
<path d="M552.474 29.5394C554.82 29.5394 556.722 27.6371 556.722 25.2906C556.722 22.944 554.82 21.0417 552.474 21.0417C550.128 21.0417 548.226 22.944 548.226 25.2906C548.226 27.6371 550.128 29.5394 552.474 29.5394Z" fill="#847E8F"/>
</g>
</g>
<defs>
<clipPath id="clip0">
<rect width="342" height="371" fill="white" transform="translate(0 12)"/>
</clipPath>
<clipPath id="clip1">
<rect width="263" height="383" fill="white" transform="translate(318)"/>
</clipPath>
</defs>
</svg>
