<svg width="581" height="484" viewBox="0 0 581 484" fill="none" xmlns="http://www.w3.org/2000/svg">
<path opacity="0.2" d="M383.559 466.481C476.745 466.481 552.287 457.649 552.287 446.754C552.287 435.859 476.745 427.027 383.559 427.027C290.373 427.027 214.831 435.859 214.831 446.754C214.831 457.649 290.373 466.481 383.559 466.481Z" fill="#C5C5C5"/>
<path opacity="0.2" d="M97.6643 453.998C149.494 453.998 191.511 445.166 191.511 434.271C191.511 423.376 149.494 414.544 97.6643 414.544C45.8344 414.544 3.81787 423.376 3.81787 434.271C3.81787 445.166 45.8344 453.998 97.6643 453.998Z" fill="#C5C5C5"/>
<path d="M166.706 291.885C166.51 291.885 166.51 291.885 166.315 291.69C166.119 291.494 166.119 291.299 166.315 291.104L175.699 283.291C175.895 283.096 176.09 283.096 176.286 283.291C176.481 283.487 176.481 283.682 176.286 283.877L166.901 291.69C166.901 291.885 166.901 291.885 166.706 291.885Z" fill="white"/>
<path d="M498.354 221.376H491.902V230.556L495.226 232.9H491.902V241.689L492.88 242.861L492.098 243.837V250.478H496.595L491.902 253.213V268.838H503.829L515.755 257.119L515.168 236.025L511.258 225.673L498.354 221.376Z" fill="#60A5A2"/>
<path d="M510.085 221.376H511.649H557.204V231.337H554.076L556.618 234.267V253.213H546.451L557.204 256.728V268.838H498.355V260.244H506.762L497.377 256.728V246.181H501.874L498.355 242.079V231.532L508.912 231.337L498.355 229.579V221.376H510.085Z" fill="white"/>
<path d="M521.075 240.712H552.162L555.486 243.837L521.075 240.712Z" fill="#E6E6EC"/>
<path d="M509.694 263.369H540.781L539.412 266.299L509.694 263.369Z" fill="#E6E6EC"/>
<path d="M523.184 253.213H499.527L513.409 257.119L523.184 253.213Z" fill="#E6E6EC"/>
<path d="M518.729 229.188L543.559 230.36L552.748 226.259L518.729 229.188Z" fill="#E6E6EC"/>
<path d="M328.395 336.222H316.664V410.833H328.395V336.222Z" fill="#74787C"/>
<path d="M355.962 328.876H286.75L278.343 216.959C277.756 210.318 282.644 204.654 288.509 204.654H353.42C359.481 204.654 364.173 210.319 363.587 216.764L355.962 328.876Z" fill="#C7C6CE"/>
<path d="M327.808 331.925C291.442 328.995 271.305 320.597 271.305 320.597C267.199 322.355 264.266 326.847 264.266 331.925C264.266 338.566 269.154 344.035 275.215 344.035H366.52C372.581 344.035 377.468 338.566 377.468 331.925C377.468 331.534 377.468 331.144 377.468 330.753C368.084 332.12 350.879 333.878 327.808 331.925Z" fill="#F2F2F2"/>
<path d="M377.469 330.753C376.882 324.698 372.19 319.816 366.52 319.816H275.411C274.042 319.816 272.674 320.206 271.5 320.597C271.5 320.597 291.638 328.995 328.004 331.925C350.879 333.878 368.084 332.12 377.469 330.753Z" fill="#B2B1B9"/>
<path d="M363.782 344.035H281.471V348.722H363.782V344.035Z" fill="#B2B1B9"/>
<path d="M284.013 423.724L319.205 401.653V406.927L291.442 423.138L284.013 423.724Z" fill="#3D3F3F"/>
<path d="M286.359 433.099C290.247 433.099 293.398 429.601 293.398 425.286C293.398 420.972 290.247 417.474 286.359 417.474C282.472 417.474 279.321 420.972 279.321 425.286C279.321 429.601 282.472 433.099 286.359 433.099Z" fill="#757575"/>
<path d="M294.963 423.724C294.963 418.646 291.248 414.349 286.556 414.349C281.863 414.349 278.148 418.45 278.148 423.724H294.963Z" fill="#3D3F3F"/>
<path d="M361.24 423.724L326.048 401.653V406.927L353.811 423.138L361.24 423.724Z" fill="#3D3F3F"/>
<path d="M358.895 433.099C362.782 433.099 365.933 429.601 365.933 425.286C365.933 420.972 362.782 417.474 358.895 417.474C355.008 417.474 351.856 420.972 351.856 425.286C351.856 429.601 355.008 433.099 358.895 433.099Z" fill="#757575"/>
<path d="M350.292 423.724C350.292 418.646 354.007 414.349 358.699 414.349C363.391 414.349 367.106 418.45 367.106 423.724H350.292Z" fill="#004345"/>
<path d="M319.205 418.841L320.378 396.966L324.288 396.77L325.461 419.036L319.205 418.841Z" fill="#474B4B"/>
<path d="M322.138 433.099C326.025 433.099 329.176 429.601 329.176 425.286C329.176 420.972 326.025 417.474 322.138 417.474C318.25 417.474 315.099 420.972 315.099 425.286C315.099 429.601 318.25 433.099 322.138 433.099Z" fill="#757575"/>
<path d="M330.546 423.724C330.546 418.646 326.831 414.349 322.139 414.349C317.446 414.349 313.731 418.45 313.731 423.724H330.546Z" fill="#3D3F3F"/>
<path d="M269.35 321.769V280.166L284.013 284.463V290.518L273.651 286.612V319.816L269.35 321.769Z" fill="#999B9D"/>
<path d="M372.972 321.769V280.166L358.309 284.463V290.518L368.671 286.612V319.816L372.972 321.769Z" fill="#3D3F3F"/>
<path d="M312.167 201.844C312.167 201.844 337.584 203.211 347.359 227.626C357.135 252.041 358.308 280.166 358.308 280.166L364.565 214.149C365.151 207.508 360.459 201.844 354.593 201.844H312.167Z" fill="#F2F2F2"/>
<path d="M540.987 281.516H131.059V292.655H540.987V281.516Z" fill="#D3D3D8"/>
<path d="M560.273 268.838H124.083V282.705H560.273V268.838Z" fill="#E6E6EC"/>
<path d="M534.304 292.655H528.734V433.011H534.304V292.655Z" fill="#CACACE"/>
<path d="M144.427 292.655H137.743V433.011H144.427V292.655Z" fill="#CACACE"/>
<path d="M508.853 199.11H490.084V266.299H508.853V199.11Z" fill="#396E75"/>
<path d="M490.084 199.11L508.853 266.299H490.084V199.11Z" fill="#2E565B"/>
<path d="M494.385 246.572C494.385 243.056 497.123 240.126 500.446 239.736C500.055 239.736 499.86 239.736 499.469 239.736C495.558 239.736 492.43 242.861 492.43 246.767C492.43 250.673 495.558 253.798 499.469 253.798C499.86 253.798 500.055 253.798 500.446 253.798C497.123 253.017 494.385 250.283 494.385 246.572Z" fill="#112B2F"/>
<path d="M506.703 246.572C506.703 243.056 503.966 240.126 500.642 239.736C497.123 240.126 494.581 243.056 494.581 246.572C494.581 250.087 497.318 253.017 500.642 253.408C503.966 253.017 506.703 250.283 506.703 246.572Z" fill="#8C8599"/>
<path d="M504.748 211.219H493.604V228.603H504.748V211.219Z" fill="white"/>
<path d="M504.748 230.946H493.604V235.439H504.748V230.946Z" fill="white"/>
<path d="M502.597 215.126H495.363C494.972 215.126 494.777 214.93 494.777 214.54C494.777 214.149 494.972 213.954 495.363 213.954H502.597C502.988 213.954 503.184 214.149 503.184 214.54C503.184 214.735 502.988 215.126 502.597 215.126Z" fill="#CACAD9"/>
<path d="M502.597 218.056H495.363C494.972 218.056 494.777 217.86 494.777 217.47C494.777 217.079 494.972 216.884 495.363 216.884H502.597C502.988 216.884 503.184 217.079 503.184 217.47C503.184 217.86 502.988 218.056 502.597 218.056Z" fill="#CACAD9"/>
<path d="M502.597 220.985H495.363C494.972 220.985 494.777 220.79 494.777 220.399C494.777 220.009 494.972 219.813 495.363 219.813H502.597C502.988 219.813 503.184 220.009 503.184 220.399C503.184 220.79 502.988 220.985 502.597 220.985Z" fill="#CACAD9"/>
<path d="M502.597 224.11H495.363C494.972 224.11 494.777 223.915 494.777 223.524C494.777 223.134 494.972 222.938 495.363 222.938H502.597C502.988 222.938 503.184 223.134 503.184 223.524C503.184 223.72 502.988 224.11 502.597 224.11Z" fill="#CACAD9"/>
<path d="M502.597 227.04H495.363C494.972 227.04 494.777 226.845 494.777 226.454C494.777 226.064 494.972 225.868 495.363 225.868H502.597C502.988 225.868 503.184 226.064 503.184 226.454C503.184 226.649 502.988 227.04 502.597 227.04Z" fill="#CACAD9"/>
<path d="M490.949 199.799L472.412 196.859L461.866 263.215L480.403 266.155L490.949 199.799Z" fill="#CA273A"/>
<path d="M469.165 244.619C469.751 241.103 472.879 238.564 476.203 238.759C475.812 238.759 475.617 238.564 475.226 238.564C471.315 237.978 467.796 240.517 467.209 244.423C466.623 248.33 469.165 251.845 473.075 252.431C473.466 252.431 473.661 252.431 474.052 252.431C470.924 251.455 468.774 248.134 469.165 244.619Z" fill="#8C101F"/>
<path d="M481.287 246.376C481.873 242.861 479.723 239.54 476.399 238.564C472.88 238.564 469.947 240.908 469.36 244.423C468.774 247.939 470.925 251.259 474.248 252.236C477.572 252.431 480.7 249.892 481.287 246.376Z" fill="#8C8599"/>
<path d="M484.944 211.203L473.938 209.457L471.21 226.625L482.216 228.37L484.944 211.203Z" fill="white"/>
<path d="M481.765 230.639L470.759 228.893L470.054 233.33L481.06 235.075L481.765 230.639Z" fill="white"/>
<path d="M482.264 214.735L475.03 213.563C474.639 213.563 474.443 213.173 474.443 212.782C474.443 212.391 474.834 212.196 475.225 212.196L482.264 213.368C482.655 213.368 482.85 213.759 482.85 214.149C482.85 214.54 482.655 214.735 482.264 214.735Z" fill="#CACAD9"/>
<path d="M481.873 217.665L474.639 216.493C474.248 216.493 474.053 216.102 474.053 215.712C474.053 215.321 474.444 215.126 474.835 215.126L481.873 216.298C482.264 216.298 482.46 216.688 482.46 217.079C482.46 217.47 482.069 217.665 481.873 217.665Z" fill="#CACAD9"/>
<path d="M481.287 220.595L474.053 219.423C473.662 219.423 473.466 219.032 473.466 218.641C473.466 218.251 473.857 218.056 474.248 218.056L481.287 219.227C481.678 219.227 481.873 219.618 481.873 220.009C481.873 220.399 481.678 220.595 481.287 220.595Z" fill="#CACAD9"/>
<path d="M480.896 223.524L473.662 222.352C473.271 222.352 473.075 221.962 473.075 221.571C473.075 221.181 473.466 220.985 473.857 220.985L480.896 222.157C481.287 222.157 481.482 222.548 481.482 222.938C481.482 223.329 481.287 223.524 480.896 223.524Z" fill="#CACAD9"/>
<path d="M480.505 226.454C480.505 226.454 480.309 226.454 480.505 226.454L473.271 225.282C472.88 225.282 472.684 224.892 472.684 224.501C472.684 224.11 473.075 223.915 473.466 223.915L480.505 225.087C480.896 225.087 481.091 225.478 481.091 225.868C481.091 226.259 480.7 226.454 480.505 226.454Z" fill="#CACAD9"/>
<path d="M458.998 268.838V227.821H461.93V266.103H525.277V227.821H527.818V268.838H458.998Z" fill="#847E8F"/>
<path d="M321.747 250.739H195.641C189.971 250.739 185.474 246.247 185.474 240.582V162.456C185.474 156.792 189.971 152.299 195.641 152.299H321.747C327.417 152.299 331.914 156.792 331.914 162.456V240.582C331.914 246.247 327.417 250.739 321.747 250.739Z" fill="white"/>
<path d="M319.597 250.739H193.686C188.016 250.739 183.52 246.247 183.52 240.582V162.456C183.52 156.792 188.016 152.299 193.686 152.299H319.597C325.267 152.299 329.764 156.792 329.764 162.456V240.582C329.959 246.247 325.267 250.739 319.597 250.739Z" fill="#ECECEC"/>
<path d="M238.654 216.363L215.388 269.294H273.26V264.02H249.408L269.545 216.363H238.654Z" fill="white"/>
<path d="M238.654 216.363L215.388 269.294H245.497L267.786 216.363H238.654Z" fill="#DBDBE1"/>
<path d="M249.407 264.02L247.452 269.294H296.722V264.02H249.407Z" fill="#B7B7B7"/>
<path opacity="0.4" d="M255.077 250.544L269.545 216.168V250.544H255.077Z" fill="#4E5553"/>
<path d="M238.654 216.363H269.545L268.959 217.73H238.067L238.654 216.363Z" fill="#B7B7B7"/>
<path d="M241.587 232.379C243.151 228.278 247.061 225.738 250.776 225.934C250.385 225.738 250.19 225.543 249.799 225.543C245.497 223.785 240.218 226.52 238.459 231.403C236.504 236.286 238.459 241.754 242.956 243.512C243.738 243.708 244.324 243.903 245.106 243.903C241.391 241.95 239.827 236.871 241.587 232.379Z" fill="white"/>
<path d="M247.452 243.707C250.384 243.122 253.122 240.778 254.295 237.457C255.663 233.746 255.077 230.035 252.731 227.496C252.34 227.106 252.144 226.715 251.753 226.52C251.558 226.324 251.167 226.129 250.776 225.934C247.061 225.543 243.15 228.082 241.586 232.379C239.827 236.871 241.391 241.95 245.106 243.903C245.301 243.903 245.692 243.903 245.888 243.903C246.474 243.903 246.865 243.903 247.452 243.707Z" fill="#74787C"/>
<path d="M258.987 171.245L261.92 196.05C261.92 196.05 270.132 194.488 270.718 194.488C271.305 194.488 274.042 194.683 274.042 194.683L277.561 195.855L282.058 196.05L284.795 203.472H312.362L311.58 176.714H282.253L258.987 171.245Z" fill="#999B9D"/>
<path d="M258.987 171.245L283.622 159.331L295.744 182.964L279.125 191.949L275.801 190.386L273.26 188.628V190.386L270.718 190.191L266.808 191.949L258.987 171.245Z" fill="white"/>
<path d="M311.385 192.339C311.385 198.394 306.497 203.472 300.241 203.472H284.6V176.714H311.385V192.339Z" fill="#DDDDDD"/>
<path d="M299.85 203.472C299.85 203.472 301.805 201.519 302.391 200.347C304.151 197.222 304.933 194.488 304.933 194.488H311.189C311.189 194.488 310.212 203.277 299.85 203.472Z" fill="#64696D"/>
<path d="M264.657 177.3C264.462 177.3 264.266 177.104 264.071 176.909C263.875 176.714 264.071 176.323 264.266 176.128L282.645 166.948C283.036 166.753 283.231 166.948 283.427 167.143C283.622 167.339 283.427 167.729 283.231 167.925L264.853 177.105C264.853 177.3 264.657 177.3 264.657 177.3Z" fill="#64696D"/>
<path d="M266.221 181.597C266.026 181.597 265.83 181.401 265.635 181.206C265.439 181.011 265.635 180.62 265.83 180.425L284.208 171.245C284.404 171.05 284.795 171.245 284.991 171.44C285.186 171.636 284.991 172.026 284.795 172.222L266.417 181.401C266.417 181.597 266.417 181.597 266.221 181.597Z" fill="#64696D"/>
<path d="M268.176 184.917C267.98 184.917 267.785 184.722 267.589 184.527C267.394 184.331 267.589 183.941 267.785 183.745L279.711 177.69C279.907 177.495 280.298 177.69 280.493 177.886C280.689 178.081 280.493 178.472 280.298 178.667L268.371 184.722C268.371 184.917 268.371 184.917 268.176 184.917Z" fill="#64696D"/>
<path d="M307.67 182.573H288.119C287.728 182.573 287.532 182.378 287.532 181.987C287.532 181.597 287.728 181.401 288.119 181.401H307.67C308.061 181.401 308.257 181.597 308.257 181.987C308.257 182.378 308.061 182.573 307.67 182.573Z" fill="white"/>
<path d="M307.279 186.284H287.728C287.337 186.284 287.141 186.089 287.141 185.698C287.141 185.308 287.337 185.113 287.728 185.113H307.279C307.67 185.113 307.866 185.308 307.866 185.698C307.866 185.894 307.67 186.284 307.279 186.284Z" fill="white"/>
<path d="M307.279 190.581H287.728C287.337 190.581 287.141 190.386 287.141 189.995C287.141 189.605 287.337 189.409 287.728 189.409H307.279C307.67 189.409 307.866 189.605 307.866 189.995C307.866 190.386 307.67 190.581 307.279 190.581Z" fill="white"/>
<path d="M300.045 195.074H287.728C287.337 195.074 287.141 194.878 287.141 194.488C287.141 194.097 287.337 193.902 287.728 193.902H300.045C300.436 193.902 300.632 194.097 300.632 194.488C300.632 194.683 300.436 195.074 300.045 195.074Z" fill="white"/>
<path opacity="0.5" d="M232.203 189.605L228.488 208.55C227.706 212.847 224.382 216.363 220.081 217.144C220.081 217.144 220.081 217.144 219.886 217.144C215.78 217.926 198.184 212.847 198.184 212.847L201.116 203.082L232.203 189.605Z" fill="#999B9D"/>
<path d="M206.785 182.964L232.202 189.409C232.202 189.409 228.487 206.793 222.231 209.722C220.862 210.308 219.103 211.09 217.539 211.285C206.785 211.676 192.708 199.566 192.708 199.566C192.708 199.566 195.837 201.324 201.116 196.441C203.266 194.683 206.785 182.964 206.785 182.964Z" fill="#F3F3F3"/>
<path d="M215.388 211.285C211.087 210.308 215.388 204.839 215.388 204.839C209.718 202.886 191.731 194.683 191.731 194.683C191.731 194.683 189.385 198.589 191.536 201.324C193.491 204.058 196.032 205.23 196.032 205.23C196.032 205.23 208.545 210.504 213.433 211.09C213.433 210.894 216.952 211.676 215.388 211.285Z" fill="#B7B7B7"/>
<g opacity="0.2">
<circle cx="369.103" cy="1.26399" r="1.26399" fill="#847E8F"/>
<circle cx="369.103" cy="15.1678" r="1.26399" fill="#847E8F"/>
<circle cx="381.742" cy="1.26399" r="1.26399" fill="#847E8F"/>
<circle cx="381.742" cy="15.1678" r="1.26399" fill="#847E8F"/>
<circle cx="394.383" cy="1.26399" r="1.26399" fill="#847E8F"/>
<circle cx="394.383" cy="15.1678" r="1.26399" fill="#847E8F"/>
<circle cx="369.103" cy="29.0717" r="1.26399" fill="#847E8F"/>
<circle cx="381.742" cy="29.0717" r="1.26399" fill="#847E8F"/>
<circle cx="394.383" cy="29.0717" r="1.26399" fill="#847E8F"/>
<circle cx="369.103" cy="42.9755" r="1.26399" fill="#847E8F"/>
<circle cx="369.103" cy="55.6153" r="1.26399" fill="#847E8F"/>
<circle cx="381.742" cy="42.9755" r="1.26399" fill="#847E8F"/>
<circle cx="381.742" cy="55.6153" r="1.26399" fill="#847E8F"/>
<circle cx="394.383" cy="42.9755" r="1.26399" fill="#847E8F"/>
<circle cx="394.383" cy="55.6153" r="1.26399" fill="#847E8F"/>
<circle cx="369.103" cy="68.2552" r="1.26399" fill="#847E8F"/>
<circle cx="381.742" cy="68.2552" r="1.26399" fill="#847E8F"/>
<circle cx="394.383" cy="68.2552" r="1.26399" fill="#847E8F"/>
<circle cx="407.023" cy="42.9755" r="1.26399" fill="#847E8F"/>
<circle cx="407.023" cy="55.6153" r="1.26399" fill="#847E8F"/>
<circle cx="419.662" cy="42.9755" r="1.26399" fill="#847E8F"/>
<circle cx="419.662" cy="55.6153" r="1.26399" fill="#847E8F"/>
<circle cx="432.302" cy="42.9755" r="1.26399" fill="#847E8F"/>
<circle cx="432.302" cy="55.6153" r="1.26399" fill="#847E8F"/>
<circle cx="407.023" cy="68.2552" r="1.26399" fill="#847E8F"/>
<circle cx="419.662" cy="68.2552" r="1.26399" fill="#847E8F"/>
<circle cx="432.302" cy="68.2552" r="1.26399" fill="#847E8F"/>
<circle cx="407.023" cy="1.26399" r="1.26399" fill="#847E8F"/>
<circle cx="407.023" cy="15.1678" r="1.26399" fill="#847E8F"/>
<circle cx="419.662" cy="1.26399" r="1.26399" fill="#847E8F"/>
<circle cx="419.662" cy="15.1678" r="1.26399" fill="#847E8F"/>
<circle cx="432.302" cy="1.26399" r="1.26399" fill="#847E8F"/>
<circle cx="432.302" cy="15.1678" r="1.26399" fill="#847E8F"/>
<circle cx="407.023" cy="29.0717" r="1.26399" fill="#847E8F"/>
<circle cx="419.662" cy="29.0717" r="1.26399" fill="#847E8F"/>
<circle cx="432.302" cy="29.0717" r="1.26399" fill="#847E8F"/>
<circle cx="446.207" cy="1.26399" r="1.26399" fill="#847E8F"/>
<circle cx="446.206" cy="15.1678" r="1.26399" fill="#847E8F"/>
<circle cx="458.846" cy="1.26399" r="1.26399" fill="#847E8F"/>
<circle cx="458.846" cy="15.1678" r="1.26399" fill="#847E8F"/>
<circle cx="471.486" cy="1.26399" r="1.26399" fill="#847E8F"/>
<circle cx="471.486" cy="15.1678" r="1.26399" fill="#847E8F"/>
<circle cx="446.206" cy="29.0717" r="1.26399" fill="#847E8F"/>
<circle cx="458.846" cy="29.0717" r="1.26399" fill="#847E8F"/>
<circle cx="471.486" cy="29.0717" r="1.26399" fill="#847E8F"/>
<circle cx="446.206" cy="42.9755" r="1.26399" fill="#847E8F"/>
<circle cx="446.206" cy="55.6153" r="1.26399" fill="#847E8F"/>
<circle cx="458.846" cy="42.9755" r="1.26399" fill="#847E8F"/>
<circle cx="458.846" cy="55.6153" r="1.26399" fill="#847E8F"/>
<circle cx="471.486" cy="42.9755" r="1.26399" fill="#847E8F"/>
<circle cx="471.486" cy="55.6153" r="1.26399" fill="#847E8F"/>
<circle cx="446.206" cy="68.2552" r="1.26399" fill="#847E8F"/>
<circle cx="458.846" cy="68.2552" r="1.26399" fill="#847E8F"/>
<circle cx="471.486" cy="68.2552" r="1.26399" fill="#847E8F"/>
<circle cx="484.126" cy="42.9755" r="1.26399" fill="#847E8F"/>
<circle cx="484.126" cy="55.6153" r="1.26399" fill="#847E8F"/>
<circle cx="496.766" cy="42.9755" r="1.26399" fill="#847E8F"/>
<circle cx="496.766" cy="55.6153" r="1.26399" fill="#847E8F"/>
<circle cx="509.406" cy="42.9755" r="1.26399" fill="#847E8F"/>
<circle cx="509.406" cy="55.6153" r="1.26399" fill="#847E8F"/>
<circle cx="484.126" cy="68.2552" r="1.26399" fill="#847E8F"/>
<circle cx="496.766" cy="68.2552" r="1.26399" fill="#847E8F"/>
<circle cx="509.406" cy="68.2552" r="1.26399" fill="#847E8F"/>
<circle cx="484.126" cy="1.26399" r="1.26399" fill="#847E8F"/>
<circle cx="484.126" cy="15.1678" r="1.26399" fill="#847E8F"/>
<circle cx="496.766" cy="1.26399" r="1.26399" fill="#847E8F"/>
<circle cx="496.766" cy="15.1678" r="1.26399" fill="#847E8F"/>
<circle cx="509.406" cy="1.26399" r="1.26399" fill="#847E8F"/>
<circle cx="509.406" cy="15.1678" r="1.26399" fill="#847E8F"/>
<circle cx="484.126" cy="29.0717" r="1.26399" fill="#847E8F"/>
<circle cx="496.766" cy="29.0717" r="1.26399" fill="#847E8F"/>
<circle cx="509.406" cy="29.0717" r="1.26399" fill="#847E8F"/>
<circle cx="446.207" cy="80.8951" r="1.26399" fill="#847E8F"/>
<circle cx="446.206" cy="94.7989" r="1.26399" fill="#847E8F"/>
<circle cx="458.846" cy="80.8951" r="1.26399" fill="#847E8F"/>
<circle cx="458.846" cy="94.7989" r="1.26399" fill="#847E8F"/>
<circle cx="471.486" cy="80.8951" r="1.26399" fill="#847E8F"/>
<circle cx="471.486" cy="94.7989" r="1.26399" fill="#847E8F"/>
<circle cx="446.206" cy="108.703" r="1.26399" fill="#847E8F"/>
<circle cx="458.846" cy="108.703" r="1.26399" fill="#847E8F"/>
<circle cx="471.486" cy="108.703" r="1.26399" fill="#847E8F"/>
<circle cx="446.206" cy="122.607" r="1.26399" fill="#847E8F"/>
<circle cx="446.206" cy="135.246" r="1.26399" fill="#847E8F"/>
<circle cx="458.846" cy="122.607" r="1.26399" fill="#847E8F"/>
<circle cx="458.846" cy="135.246" r="1.26399" fill="#847E8F"/>
<circle cx="471.486" cy="122.607" r="1.26399" fill="#847E8F"/>
<circle cx="471.486" cy="135.246" r="1.26399" fill="#847E8F"/>
<circle cx="446.206" cy="147.886" r="1.26399" fill="#847E8F"/>
<circle cx="458.846" cy="147.886" r="1.26399" fill="#847E8F"/>
<circle cx="471.486" cy="147.886" r="1.26399" fill="#847E8F"/>
<circle cx="484.126" cy="122.607" r="1.26399" fill="#847E8F"/>
<circle cx="484.126" cy="135.246" r="1.26399" fill="#847E8F"/>
<circle cx="496.766" cy="122.607" r="1.26399" fill="#847E8F"/>
<circle cx="496.766" cy="135.246" r="1.26399" fill="#847E8F"/>
<circle cx="509.406" cy="122.607" r="1.26399" fill="#847E8F"/>
<circle cx="509.406" cy="135.246" r="1.26399" fill="#847E8F"/>
<circle cx="484.126" cy="147.886" r="1.26399" fill="#847E8F"/>
<circle cx="496.766" cy="147.886" r="1.26399" fill="#847E8F"/>
<circle cx="509.406" cy="147.886" r="1.26399" fill="#847E8F"/>
<circle cx="484.126" cy="80.8951" r="1.26399" fill="#847E8F"/>
<circle cx="484.126" cy="94.7989" r="1.26399" fill="#847E8F"/>
<circle cx="496.766" cy="80.8951" r="1.26399" fill="#847E8F"/>
<circle cx="496.766" cy="94.7989" r="1.26399" fill="#847E8F"/>
<circle cx="509.406" cy="80.8951" r="1.26399" fill="#847E8F"/>
<circle cx="509.406" cy="94.7989" r="1.26399" fill="#847E8F"/>
<circle cx="484.126" cy="108.703" r="1.26399" fill="#847E8F"/>
<circle cx="496.766" cy="108.703" r="1.26399" fill="#847E8F"/>
<circle cx="509.406" cy="108.703" r="1.26399" fill="#847E8F"/>
<circle cx="369.103" cy="80.8951" r="1.26399" fill="#847E8F"/>
<circle cx="369.103" cy="94.7989" r="1.26399" fill="#847E8F"/>
<circle cx="381.742" cy="80.8951" r="1.26399" fill="#847E8F"/>
<circle cx="381.742" cy="94.7989" r="1.26399" fill="#847E8F"/>
<circle cx="394.383" cy="80.8951" r="1.26399" fill="#847E8F"/>
<circle cx="394.383" cy="94.7989" r="1.26399" fill="#847E8F"/>
<circle cx="369.103" cy="108.703" r="1.26399" fill="#847E8F"/>
<circle cx="381.742" cy="108.703" r="1.26399" fill="#847E8F"/>
<circle cx="394.383" cy="108.703" r="1.26399" fill="#847E8F"/>
<circle cx="369.103" cy="122.607" r="1.26399" fill="#847E8F"/>
<circle cx="369.103" cy="135.246" r="1.26399" fill="#847E8F"/>
<circle cx="381.742" cy="122.607" r="1.26399" fill="#847E8F"/>
<circle cx="381.742" cy="135.246" r="1.26399" fill="#847E8F"/>
<circle cx="394.383" cy="122.607" r="1.26399" fill="#847E8F"/>
<circle cx="394.383" cy="135.246" r="1.26399" fill="#847E8F"/>
<circle cx="369.103" cy="147.886" r="1.26399" fill="#847E8F"/>
<circle cx="381.742" cy="147.886" r="1.26399" fill="#847E8F"/>
<circle cx="394.383" cy="147.886" r="1.26399" fill="#847E8F"/>
<circle cx="407.023" cy="122.607" r="1.26399" fill="#847E8F"/>
<circle cx="407.023" cy="135.246" r="1.26399" fill="#847E8F"/>
<circle cx="419.662" cy="122.607" r="1.26399" fill="#847E8F"/>
<circle cx="419.662" cy="135.246" r="1.26399" fill="#847E8F"/>
<circle cx="432.302" cy="122.607" r="1.26399" fill="#847E8F"/>
<circle cx="432.302" cy="135.246" r="1.26399" fill="#847E8F"/>
<circle cx="407.023" cy="147.886" r="1.26399" fill="#847E8F"/>
<circle cx="419.662" cy="147.886" r="1.26399" fill="#847E8F"/>
<circle cx="432.302" cy="147.886" r="1.26399" fill="#847E8F"/>
<circle cx="407.023" cy="80.8951" r="1.26399" fill="#847E8F"/>
<circle cx="407.023" cy="94.7989" r="1.26399" fill="#847E8F"/>
<circle cx="419.662" cy="80.8951" r="1.26399" fill="#847E8F"/>
<circle cx="419.662" cy="94.7989" r="1.26399" fill="#847E8F"/>
<circle cx="432.302" cy="80.8951" r="1.26399" fill="#847E8F"/>
<circle cx="432.302" cy="94.7989" r="1.26399" fill="#847E8F"/>
<circle cx="407.023" cy="108.703" r="1.26399" fill="#847E8F"/>
<circle cx="419.662" cy="108.703" r="1.26399" fill="#847E8F"/>
<circle cx="432.302" cy="108.703" r="1.26399" fill="#847E8F"/>
<circle cx="293.264" cy="80.895" r="1.26399" fill="#847E8F"/>
<circle cx="293.264" cy="94.7989" r="1.26399" fill="#847E8F"/>
<circle cx="305.904" cy="80.8951" r="1.26399" fill="#847E8F"/>
<circle cx="305.904" cy="94.7989" r="1.26399" fill="#847E8F"/>
<circle cx="318.543" cy="80.8951" r="1.26399" fill="#847E8F"/>
<circle cx="318.543" cy="94.7989" r="1.26399" fill="#847E8F"/>
<circle cx="293.264" cy="108.703" r="1.26399" fill="#847E8F"/>
<circle cx="305.904" cy="108.703" r="1.26399" fill="#847E8F"/>
<circle cx="318.543" cy="108.703" r="1.26399" fill="#847E8F"/>
<circle cx="293.264" cy="122.607" r="1.26399" fill="#847E8F"/>
<circle cx="293.264" cy="135.246" r="1.26399" fill="#847E8F"/>
<circle cx="305.904" cy="122.607" r="1.26399" fill="#847E8F"/>
<circle cx="305.904" cy="135.246" r="1.26399" fill="#847E8F"/>
<circle cx="318.543" cy="122.607" r="1.26399" fill="#847E8F"/>
<circle cx="318.543" cy="135.246" r="1.26399" fill="#847E8F"/>
<circle cx="293.264" cy="147.886" r="1.26399" fill="#847E8F"/>
<circle cx="305.904" cy="147.886" r="1.26399" fill="#847E8F"/>
<circle cx="318.543" cy="147.886" r="1.26399" fill="#847E8F"/>
<circle cx="331.184" cy="122.607" r="1.26399" fill="#847E8F"/>
<circle cx="331.184" cy="135.246" r="1.26399" fill="#847E8F"/>
<circle cx="343.824" cy="122.607" r="1.26399" fill="#847E8F"/>
<circle cx="343.824" cy="135.246" r="1.26399" fill="#847E8F"/>
<circle cx="356.463" cy="122.607" r="1.26399" fill="#847E8F"/>
<circle cx="356.463" cy="135.246" r="1.26399" fill="#847E8F"/>
<circle cx="331.184" cy="147.886" r="1.26399" fill="#847E8F"/>
<circle cx="343.824" cy="147.886" r="1.26399" fill="#847E8F"/>
<circle cx="356.463" cy="147.886" r="1.26399" fill="#847E8F"/>
<circle cx="331.184" cy="80.8951" r="1.26399" fill="#847E8F"/>
<circle cx="331.184" cy="94.7989" r="1.26399" fill="#847E8F"/>
<circle cx="343.824" cy="80.8951" r="1.26399" fill="#847E8F"/>
<circle cx="343.824" cy="94.7989" r="1.26399" fill="#847E8F"/>
<circle cx="356.463" cy="80.8951" r="1.26399" fill="#847E8F"/>
<circle cx="356.463" cy="94.7989" r="1.26399" fill="#847E8F"/>
<circle cx="331.184" cy="108.703" r="1.26399" fill="#847E8F"/>
<circle cx="343.824" cy="108.703" r="1.26399" fill="#847E8F"/>
<circle cx="356.463" cy="108.703" r="1.26399" fill="#847E8F"/>
<circle cx="293.264" cy="1.26399" r="1.26399" fill="#847E8F"/>
<circle cx="293.264" cy="15.1678" r="1.26399" fill="#847E8F"/>
<circle cx="305.904" cy="1.26399" r="1.26399" fill="#847E8F"/>
<circle cx="305.904" cy="15.1678" r="1.26399" fill="#847E8F"/>
<circle cx="318.543" cy="1.26399" r="1.26399" fill="#847E8F"/>
<circle cx="318.543" cy="15.1678" r="1.26399" fill="#847E8F"/>
<circle cx="293.264" cy="29.0717" r="1.26399" fill="#847E8F"/>
<circle cx="305.904" cy="29.0717" r="1.26399" fill="#847E8F"/>
<circle cx="318.543" cy="29.0717" r="1.26399" fill="#847E8F"/>
<circle cx="293.264" cy="42.9755" r="1.26399" fill="#847E8F"/>
<circle cx="293.264" cy="55.6153" r="1.26399" fill="#847E8F"/>
<circle cx="305.904" cy="42.9755" r="1.26399" fill="#847E8F"/>
<circle cx="305.904" cy="55.6153" r="1.26399" fill="#847E8F"/>
<circle cx="318.543" cy="42.9755" r="1.26399" fill="#847E8F"/>
<circle cx="318.543" cy="55.6153" r="1.26399" fill="#847E8F"/>
<circle cx="293.264" cy="68.2552" r="1.26399" fill="#847E8F"/>
<circle cx="305.904" cy="68.2552" r="1.26399" fill="#847E8F"/>
<circle cx="318.543" cy="68.2552" r="1.26399" fill="#847E8F"/>
<circle cx="331.184" cy="42.9755" r="1.26399" fill="#847E8F"/>
<circle cx="331.184" cy="55.6153" r="1.26399" fill="#847E8F"/>
<circle cx="343.824" cy="42.9755" r="1.26399" fill="#847E8F"/>
<circle cx="343.824" cy="55.6153" r="1.26399" fill="#847E8F"/>
<circle cx="356.463" cy="42.9755" r="1.26399" fill="#847E8F"/>
<circle cx="356.463" cy="55.6153" r="1.26399" fill="#847E8F"/>
<circle cx="331.184" cy="68.2552" r="1.26399" fill="#847E8F"/>
<circle cx="343.824" cy="68.2552" r="1.26399" fill="#847E8F"/>
<circle cx="356.463" cy="68.2552" r="1.26399" fill="#847E8F"/>
<circle cx="331.184" cy="1.26399" r="1.26399" fill="#847E8F"/>
<circle cx="331.184" cy="15.1678" r="1.26399" fill="#847E8F"/>
<circle cx="343.824" cy="1.26399" r="1.26399" fill="#847E8F"/>
<circle cx="343.824" cy="15.1678" r="1.26399" fill="#847E8F"/>
<circle cx="356.463" cy="1.26399" r="1.26399" fill="#847E8F"/>
<circle cx="356.463" cy="15.1678" r="1.26399" fill="#847E8F"/>
<circle cx="331.184" cy="29.0717" r="1.26399" fill="#847E8F"/>
<circle cx="343.824" cy="29.0717" r="1.26399" fill="#847E8F"/>
<circle cx="356.463" cy="29.0717" r="1.26399" fill="#847E8F"/>
</g>
<path d="M339.149 434.466C338.367 437.787 339.736 442.865 339.736 442.865L325.854 445.99L328.396 423.333L341.887 425.482C341.887 425.482 339.931 430.365 339.149 434.466Z" fill="#7D7984"/>
<path d="M330.351 443.646C330.351 443.646 334.261 439.349 335.043 437.591C335.825 435.443 336.608 433.295 336.412 431.537C336.216 429.779 331.133 426.849 331.133 426.849L341.104 428.216C341.104 428.216 339.345 434.271 339.54 436.615C339.54 438.959 339.931 441.888 339.931 441.888L330.351 443.646Z" fill="#625B6D"/>
<path d="M340.518 441.888C340.322 444.427 339.931 453.217 339.931 453.217L304.348 452.045L306.694 445.99C306.694 445.99 311.191 445.209 317.252 442.67C323.703 439.935 323.703 437.591 323.703 437.591C323.703 437.591 327.809 437.591 327.614 440.912C327.418 444.037 326.832 443.841 326.832 443.841L340.518 441.888Z" fill="#69605D"/>
<path d="M306.499 450.482C306.303 450.482 306.108 450.287 305.912 450.092C305.912 449.896 306.108 449.506 306.303 449.506H339.149C339.345 449.506 339.54 449.701 339.736 449.896C339.736 450.092 339.54 450.482 339.345 450.482H306.499Z" fill="#4E4441"/>
<path d="M447.463 266.299C447.072 276.26 438.078 285.83 425.37 300.87C412.857 316.105 375.123 352.043 375.123 352.043C375.123 352.043 369.453 361.027 364.565 381.731C359.677 402.63 348.142 432.709 348.142 432.709L325.658 428.021C325.658 428.021 336.802 354.582 349.706 338.761C362.61 322.745 391.546 274.307 391.546 274.307L386.658 270.986L365.738 265.127C365.738 265.127 384.116 188.563 407.969 202.821C431.626 217.079 449.418 224.892 447.463 266.299Z" fill="#393941"/>
<path d="M352.834 335.831C352.834 335.831 353.225 342.863 357.527 345.402C362.806 348.722 368.084 349.699 369.257 348.722C370.431 347.746 368.671 338.37 370.04 339.152C371.408 340.128 373.754 348.527 374.145 345.402C374.536 342.277 374.927 334.855 376.1 337.589C377.274 340.324 379.424 343.644 379.424 343.644L397.802 330.167C397.802 330.167 376.1 349.504 373.559 355.363C371.017 361.223 348.338 432.513 348.338 432.513L325.854 427.826C325.854 427.826 332.305 385.246 336.607 373.723C340.908 362.199 346.773 336.808 352.834 335.831Z" fill="#282828"/>
<path d="M373.95 249.697C373.95 249.697 382.357 252.041 386.072 246.572C389.786 241.298 392.523 237.587 395.847 238.564C397.802 239.15 403.081 244.228 405.623 248.525C408.165 252.822 414.421 261.221 422.242 262.002C430.258 262.783 441.597 256.142 441.597 256.142L406.991 221.962L388.418 220.204L373.95 249.697Z" fill="black"/>
<path d="M385.681 142.077C385.681 142.077 343.059 168.25 326.831 158.875C304.934 146.179 282.841 121.96 282.841 121.96L288.706 115.71C288.706 115.71 317.642 133.093 339.344 140.124C347.751 142.859 381.966 99.303 386.072 99.4983C392.133 99.889 404.841 132.897 385.681 142.077Z" fill="#393941"/>
<path d="M288.707 115.71C288.707 115.71 281.277 103.795 278.54 104.186C275.803 104.577 279.322 107.702 277.758 108.288C276.194 108.874 263.485 98.1312 263.681 101.061C263.681 103.795 267.591 107.311 267.591 107.311C267.591 107.311 261.921 103.209 262.312 105.358C262.703 107.311 267.787 111.217 267.787 111.217C267.787 111.217 263.485 109.655 264.267 111.608C264.854 113.561 268.764 116.1 268.764 116.1C268.764 116.1 263.485 116.882 266.027 118.053C268.569 119.225 283.037 122.155 283.037 122.155L288.707 115.71Z" fill="#EEBCA4"/>
<path d="M380.597 146.57C385.876 141.491 394.479 153.406 398.585 147.351C398.976 146.57 386.463 109.655 384.899 114.928C381.966 125.085 345.796 153.601 342.863 153.601C339.931 153.601 333.088 156.14 334.456 154.773C335.825 153.21 343.059 146.57 341.495 146.179C338.757 145.398 331.328 155.75 331.328 155.75C331.328 155.75 333.479 146.57 332.11 147.156C330.741 147.742 326.44 154.968 325.854 154.773C325.267 154.578 327.809 147.351 325.267 148.523C322.725 149.499 320.966 151.843 318.424 149.89C315.687 147.742 284.6 120.202 284.6 120.202L283.036 122.936C283.036 122.936 305.716 145.788 321.552 157.312C334.261 166.297 368.476 158.093 380.597 146.57Z" fill="#232327"/>
<path d="M288.315 114.342L280.886 121.764L283.623 123.132L289.879 116.491L288.315 114.342Z" fill="white"/>
<path d="M242.565 60.7142C242.565 60.7142 234.353 71.8473 235.135 83.7616C236.308 103.879 247.257 118.333 247.257 118.333L266.222 122.044C271.11 122.63 273.847 120.872 277.757 117.551L283.622 112.668C280.69 107.004 277.952 100.559 277.757 94.504C277.366 82.0037 284.209 75.1676 284.209 75.1676L242.565 60.7142Z" fill="#F9F9F9"/>
<path opacity="0.14" d="M279.321 116.491L268.568 114.733C268.568 114.733 270.328 115.71 269.937 119.03C269.546 122.35 266.809 124.304 266.809 124.304C266.809 124.304 280.104 121.764 280.886 118.053C280.886 117.467 279.321 116.491 279.321 116.491Z" fill="#8080A0"/>
<g opacity="0.2">
<path d="M237.482 80.9433C237.286 80.748 237.286 80.5526 237.286 80.3573C237.286 80.162 237.677 79.9667 237.873 80.162L271.305 89.9279C271.501 89.9279 271.697 90.3185 271.697 90.5138C271.697 90.7091 271.305 90.9044 271.11 90.7091L237.482 80.9433C237.677 80.9433 237.482 80.9433 237.482 80.9433Z" fill="#333333"/>
</g>
<g opacity="0.2">
<path d="M241.392 69.8102C241.196 69.6149 241.196 69.4196 241.196 69.2242C241.196 69.0289 241.587 68.8336 241.783 69.0289L274.825 80.162C275.02 80.162 275.216 80.5526 275.216 80.7479C275.216 80.9432 274.825 81.1385 274.629 80.9432L241.392 69.8102Z" fill="#333333"/>
</g>
<g opacity="0.2">
<path d="M236.895 86.6074C236.699 86.4121 236.699 86.4121 236.699 86.2168C236.699 86.0215 237.09 85.8261 237.286 85.8261L270.132 94.0294C270.328 94.0294 270.523 94.4201 270.523 94.6154C270.523 94.8107 270.132 95.006 269.937 95.006L236.895 86.6074C237.09 86.8027 237.09 86.6074 236.895 86.6074Z" fill="#333333"/>
</g>
<path d="M266.613 124.304C266.613 124.304 271.697 123.327 275.411 121.96C279.517 120.397 282.45 117.467 282.45 117.467C282.45 117.467 283.036 116.296 282.254 114.928C280.886 112.389 277.562 111.999 277.562 111.999C277.562 111.999 276.78 120.007 266.613 124.304Z" fill="#B7B7B7"/>
<path d="M279.516 110.827C279.516 110.827 273.651 104.186 273.847 103.014C274.042 100.67 279.907 104.381 281.472 106.139C282.84 107.897 284.209 111.217 284.209 111.217L279.516 110.827Z" fill="#EEBCA4"/>
<path d="M410.901 70.5915C411.292 77.4276 424.001 100.28 424.001 100.28C421.85 111.413 401.712 99.4984 401.712 99.4984C401.712 99.4984 398.779 97.5452 399.17 94.4201C399.757 91.4904 396.238 85.2402 396.238 85.2402C396.238 85.2402 389.77 88.3976 386.251 86.2491C382.732 84.1006 381.688 81.0237 380.891 76.8888C380.017 72.351 381.77 65.318 382.356 61.2163C382.943 57.1147 386.071 46.5676 398.193 48.1301C410.315 49.6926 410.51 63.7554 410.901 70.5915Z" fill="#EEBCA4"/>
<path d="M414.421 101.061C414.421 101.061 414.225 100.866 414.03 100.475C412.857 98.3265 408.946 90.3185 405.818 82.8965C402.299 73.9119 398.78 65.5133 400.93 64.5367C404.449 63.1695 405.036 57.7006 405.036 57.7006C405.036 57.7006 400.735 55.1615 400.148 56.9193C399.757 58.6772 400.148 62.5835 398.975 62.7788C397.998 62.9742 397.215 61.021 394.478 57.7006C391.741 54.1849 389.004 53.2083 389.004 53.2083C389.004 53.2083 394.674 52.2318 398.389 52.6224C402.299 53.013 412.27 73.1306 413.834 79.1854C415.594 85.0449 425.174 102.623 425.174 102.623C425.174 102.623 418.331 106.139 414.421 101.061Z" fill="#DAA186"/>
<path d="M409.808 47.9785C417.825 54.5 415 52 415 63C415.001 74.5 406.995 83.1426 393 86.5C385.366 88.1788 383.345 85.5401 381.055 78.8252C379.782 75.0481 378 66.5 388.434 68.3331C393.269 68.7528 401.991 72.6968 402.5 68.5C403.167 65.5 403.9 58.9 401.5 56.5C400.561 56.2751 400.551 62.563 399.5 62.5C398.528 62.4417 396.52 55.1427 395.5 55.1691C389.507 55.3242 383.074 56.4934 380.8 53.4344C378.256 50.0769 382.327 47.9785 385.38 46.5096C391.233 43.7817 400 40 409.808 47.9785Z" fill="#393941"/>
<path d="M388.5 75.5C392.035 76.005 396.078 76.2356 396.039 74.3013C391.67 71.3423 386.193 71.8675 384 72.5C383.999 73.57 385 75 388.5 75.5Z" fill="#EEBCA4"/>
<path d="M413.835 224.11C413.835 224.11 404.45 224.501 395.456 223.329C389.395 222.548 384.312 220.985 384.312 220.985C384.312 220.985 391.937 208.094 399.171 208.485C404.841 208.876 413.835 224.11 413.835 224.11Z" fill="#DBDFDE"/>
<path d="M419.309 253.603C429.084 254.97 436.905 256.533 440.815 256.338C457.825 255.361 459.584 226.259 456.065 199.305C453.328 177.234 445.703 155.164 448.245 148.523C454.892 131.335 453.719 111.803 448.831 108.483C442.966 104.577 416.376 98.5217 399.562 97.7405C398.975 97.7405 398.389 97.3498 397.802 97.3498C392.132 97.1545 387.44 97.7405 386.267 99.6936C382.943 104.381 368.866 136.999 373.559 152.234C380.793 175.476 379.033 204.969 379.033 204.969C379.033 204.969 386.071 191.883 400.344 210.048C406.209 218.251 408.36 252.236 419.309 253.603Z" fill="#393941"/>
<path d="M427.325 102.819L401.713 149.304L399.171 98.3264C399.171 98.3264 421.069 100.866 427.325 102.819Z" fill="white"/>
<path d="M411.098 132.312C411.098 132.312 417.354 116.491 414.812 108.483C413.835 105.553 411.489 104.381 411.489 104.381L406.601 104.772L399.367 104.967L398.78 97.5452L403.864 97.1546L408.36 99.303L424.588 101.256L427.716 101.842L411.098 132.312Z" fill="#DBDFDE"/>
<path d="M406.601 98.3264L410.315 105.944C410.315 105.944 416.767 100.475 416.963 99.889C416.963 99.1077 406.601 98.3264 406.601 98.3264Z" fill="#CA273A"/>
<path d="M410.12 102.428L401 135L401.713 150.281L408.751 136.609L412.466 102.233L410.12 102.428Z" fill="#CA273A"/>
<path d="M390.959 160.437C390.959 160.437 395.261 178.602 404.841 194.813C416.963 215.712 425.565 254.97 425.565 254.97L419.309 253.603C409.729 252.822 406.014 215.321 399.171 208.485C397.216 206.727 382.357 245.595 378.446 248.134C371.408 252.627 361.632 249.306 360.068 248.33C358.895 247.744 374.145 231.728 378.055 211.024C381.966 190.321 374.732 164.929 373.754 160.828C371.799 152.625 372.385 135.632 372.776 131.921C373.363 128.21 385.094 99.889 385.094 99.889C385.094 99.889 388.027 97.1546 395.065 97.3499C397.802 97.5452 397.802 97.5452 397.802 97.5452L395.652 150.867L390.959 160.437Z" fill="#2C2C31"/>
<path d="M398.78 166.883L398.584 192.078L404.059 161.023L424.392 138.562V136.609L439.447 127.233C439.447 127.233 452.546 117.272 449.027 109.46C448.049 107.311 438.665 104.772 438.665 104.772L424.979 133.288L418.136 131.726L421.069 139.148L401.126 159.656C399.758 161.218 398.976 163.172 398.78 165.125V166.883Z" fill="#232327"/>
<path d="M399.171 209.071C398.976 209.071 398.78 208.876 398.585 208.68L398.389 165.125C398.389 163.172 399.171 161.218 400.54 159.656L420.482 139.148L417.158 131.14L424.588 132.897L437.492 107.311C437.687 107.116 437.883 106.92 438.078 107.116C438.274 107.311 438.469 107.506 438.274 107.702L424.979 133.874L418.527 132.312L421.264 139.148L421.069 139.343L400.931 160.046C399.758 161.414 398.976 162.976 398.976 164.734L399.171 208.29C399.562 208.876 399.367 209.071 399.171 209.071Z" fill="black"/>
<path d="M386.267 99.1077L384.508 125.28L390.96 125.671L386.658 130.749L398.78 162L390.569 131.335L394.284 123.718L388.223 121.374L388.809 98.3264L386.267 99.1077Z" fill="#040404"/>
<path d="M436.134 257.03C435.939 257.03 430.073 256.444 419.32 254.491C412.673 253.319 408.762 238.866 405.243 226.17C403.092 218.357 401.137 210.935 398.987 209.373C397.814 210.154 394.294 217.771 391.362 224.607C386.474 235.35 380.999 247.459 377.676 249.608C372.006 253.124 361.644 249.608 361.057 249.413C360.862 249.413 360.666 249.022 360.666 248.827C360.666 248.631 361.057 248.436 361.253 248.436C361.448 248.436 371.81 251.952 376.894 248.631C379.826 246.678 385.496 234.178 390.189 224.217C395.076 213.279 397.227 208.787 398.596 208.396C398.791 208.396 398.987 208.396 399.182 208.396C401.724 209.959 403.483 216.99 406.025 225.779C409.153 237.498 413.064 252.342 419.32 253.319C429.878 255.077 435.939 255.663 435.939 255.858C436.134 255.858 436.33 256.053 436.33 256.444C436.525 256.835 436.33 257.03 436.134 257.03Z" fill="black"/>
<path d="M391.351 151.453L375.514 150.867C375.319 150.867 375.123 150.671 375.123 150.281C375.123 150.085 375.319 149.89 375.71 149.89L391.546 150.476C391.742 150.476 391.937 150.671 391.937 151.062C391.937 151.257 391.742 151.453 391.351 151.453Z" fill="black"/>
<path d="M439.838 208.094L421.459 205.946C421.264 205.946 421.068 205.751 421.068 205.36C421.068 205.165 421.264 204.969 421.655 204.969L439.838 207.118C440.033 207.118 440.229 207.313 440.229 207.704C440.424 207.899 440.229 208.094 439.838 208.094Z" fill="black"/>
<path d="M380.206 204.774C380.011 204.774 379.815 204.579 379.815 204.383C379.815 204.188 380.011 203.797 380.206 203.797L385.485 203.211C385.681 203.211 386.072 203.407 386.072 203.602C386.072 203.797 385.876 204.188 385.681 204.188L380.206 204.774Z" fill="black"/>
<path d="M384.508 141.882L378.056 149.89L389.004 150.281L384.508 141.882Z" fill="#396E75"/>
<path d="M381.575 150.085L385.485 145.398L383.921 142.468L384.507 141.882L389.004 150.281L381.575 150.085Z" fill="#2E565B"/>
<path d="M423.61 103.991L426.543 100.475L419.113 97.1546L415.203 101.256L417.354 102.428L417.549 104.186L423.61 103.991Z" fill="white"/>
<path d="M407.969 100.866L405.428 95.3967L398.389 95.2014L400.735 100.475L404.646 102.037L405.232 99.889L407.969 100.866Z" fill="white"/>
<path d="M417.354 103.209L413.444 103.014L415.79 100.67H417.55L417.354 103.209Z" fill="#A61A2B"/>
<path d="M407.383 99.889L405.232 98.9124L404.841 101.256L408.751 102.819L407.383 99.889Z" fill="#A61A2B"/>
<path d="M413.248 103.014L410.706 104.381L408.556 102.233L409.533 104.772L412.075 104.967L413.248 103.014Z" fill="#A61A2B"/>
<path d="M446.095 203.602C445.899 203.602 445.704 203.407 445.704 203.212L435.732 164.929C435.732 164.734 435.732 164.343 436.123 164.343C436.319 164.343 436.71 164.343 436.71 164.734L446.681 203.016C446.681 203.407 446.486 203.602 446.095 203.602Z" fill="black"/>
<path d="M445.508 178.406C445.312 178.406 445.117 178.211 445.117 178.016L440.229 158.875C440.229 158.679 440.229 158.289 440.62 158.289C440.816 158.289 441.207 158.289 441.207 158.679L446.094 177.82C446.094 178.211 445.899 178.406 445.508 178.406C445.703 178.406 445.508 178.406 445.508 178.406Z" fill="black"/>
<path d="M433.387 135.437C433.387 135.437 456.262 179.578 476.009 185.438C502.403 193.25 538.573 192.469 538.573 192.469L539.551 183.094C539.551 183.094 504.163 173.328 482.461 161.218C474.054 156.531 454.307 113.366 451.179 110.241C446.682 105.553 427.131 113.17 433.387 135.437Z" fill="#393941"/>
<path d="M435.537 140.652C431.236 133.816 430.649 128.347 432.8 120.535C432.995 119.558 435.342 125.027 435.342 125.222C436.906 137.136 455.871 155.496 457.63 158.035C463.105 165.067 473.467 179.52 473.662 177.372C473.858 175.028 474.444 164.285 475.813 165.067C478.355 166.629 475.031 180.497 475.031 180.497C475.031 180.497 481.092 171.707 481.874 173.27C482.46 174.833 479.332 183.817 479.919 184.012C480.505 184.208 484.611 176.786 485.589 179.52C486.566 182.255 485.784 185.575 489.499 185.966C493.214 186.552 538.768 190.263 538.768 190.263L537.595 193.583C537.595 193.583 500.643 192.411 479.919 187.919C465.255 185.184 445.313 155.887 435.537 140.652Z" fill="#202020"/>
<path d="M541.115 182.313L540.137 193.836L537.009 192.86L537.986 182.703L541.115 182.313Z" fill="white"/>
<path d="M537.309 192.801C536.914 192.801 491.228 192.219 475.01 186.012C458.793 179.806 435.257 140.626 434.268 138.88C434.071 138.686 434.268 138.298 434.466 138.298C434.664 138.105 435.06 138.298 435.06 138.492C435.257 138.88 459.386 179.03 475.406 185.237C491.426 191.249 536.914 192.025 537.309 192.025C537.507 192.025 537.705 192.219 537.705 192.607C537.903 192.607 537.705 192.801 537.309 192.801Z" fill="black"/>
<path d="M473.076 184.656L475.227 164.148C475.227 163.953 475.422 163.758 475.813 163.758C476.009 163.758 476.204 163.953 476.204 164.343L474.445 181.336L481.288 172.156C481.483 171.961 481.679 171.961 481.874 172.156C482.07 172.351 482.07 172.547 481.874 172.937L473.076 184.656Z" fill="#0C0C0C"/>
<path d="M479.723 185.242C479.528 185.242 479.528 185.242 479.332 185.047C479.137 184.852 479.137 184.461 479.332 184.266L486.371 177.039C486.566 176.844 486.957 176.844 487.153 177.039C487.348 177.234 487.348 177.625 487.153 177.82L480.114 185.047C480.114 185.242 479.919 185.242 479.723 185.242Z" fill="#0C0C0C"/>
<path d="M575.72 202.235L580.999 178.016L558.515 179.188L559.297 183.68L562.816 202.235H575.72Z" fill="#CA273A"/>
<path d="M561.448 178.992L568.291 202.235H562.816L558.515 179.188L561.448 178.992Z" fill="#A61A2B"/>
<path d="M560.861 184.656C560.861 184.656 554.018 180.164 552.258 182.117C550.499 184.07 553.04 199.5 555.191 200.868C557.342 202.235 562.425 197.938 562.425 197.938L561.447 194.813C561.447 194.813 557.733 199.305 555.973 197.547C554.213 195.789 553.04 185.633 554.018 185.047C554.995 184.461 560.665 187.781 560.665 187.781L560.861 184.656Z" fill="#CA273A"/>
<path d="M540.919 183.094C540.919 183.094 546.198 181.141 547.957 181.141C549.521 181.336 560.275 184.852 560.079 187C559.884 188.953 552.454 186.219 552.063 186.414C551.868 186.61 552.454 190.711 552.454 190.711L553.432 197.157C553.432 197.157 549.326 198.329 544.829 196.961C542.483 196.18 540.137 194.032 540.137 194.032L540.919 183.094Z" fill="#EEBCA4"/>
<path d="M546.002 197.157C546.002 197.157 543.656 196.18 543.851 194.617C544.047 193.055 544.829 186.61 546.002 185.828C547.175 185.047 550.89 184.656 551.867 185.047C552.845 185.438 559.101 187.586 559.101 187.586C559.101 187.586 558.124 187.977 556.364 187.586C554.605 187.195 552.649 186.414 552.063 186.414C551.281 186.414 552.454 190.321 552.454 190.321L553.432 197.157C553.627 197.157 549.326 198.329 546.002 197.157Z" fill="#E39E7D"/>
<path d="M554.018 187C554.018 187 555.973 188.758 555.582 189.539C555.191 190.321 556.56 190.906 556.56 192.078C556.56 193.055 555.973 193.836 555.973 193.836C555.973 193.836 557.146 194.227 556.951 195.203C556.755 196.18 555.387 196.375 555.191 196.375C554.996 196.571 546.98 196.18 546.784 195.008C546.589 193.836 547.762 193.641 547.762 193.641C547.762 193.641 545.22 192.469 546.002 191.297C546.589 190.321 547.566 190.321 547.566 190.321C547.566 190.321 545.025 188.953 545.807 188.172C546.784 187.391 547.566 187.781 547.566 187.781C547.566 187.781 545.611 186.219 546.589 185.633C547.762 185.438 553.627 187.586 554.018 187Z" fill="#EEBCA4"/>
<path d="M562.035 178.992C562.035 178.992 566.14 183.094 570.246 185.047C574.352 187 578.849 187.586 578.849 187.586L581 177.625L562.035 178.992Z" fill="#CA273A"/>
<path d="M360.655 403.02C361.632 406.341 365.347 410.052 365.347 410.052L354.79 419.622L345.796 398.723L358.7 394.036C358.7 393.84 359.482 399.114 360.655 403.02Z" fill="#7D7984"/>
<path d="M357.527 415.325C357.527 415.325 358.895 409.661 358.504 407.708C358.113 405.559 357.722 403.216 356.745 401.848C355.572 400.481 349.902 400.481 349.902 400.481L359.287 396.77C359.287 396.77 360.851 403.02 362.024 404.974C363.197 406.927 365.152 409.271 365.152 409.271L357.527 415.325Z" fill="#625B6D"/>
<path d="M365.543 408.685C366.716 410.833 370.626 418.841 370.626 418.841L339.148 435.443L338.171 428.997C338.171 428.997 341.69 426.068 345.6 420.794C349.902 415.13 348.729 413.177 348.729 413.177C348.729 413.177 352.248 411.224 353.616 414.153C354.985 417.083 354.399 417.083 354.399 417.083L365.543 408.685Z" fill="#69605D"/>
<path d="M339.735 432.709C339.54 432.709 339.344 432.709 339.344 432.513C339.149 432.318 339.344 431.927 339.54 431.927L367.889 415.716C368.085 415.521 368.476 415.716 368.476 415.911C368.671 416.107 368.476 416.497 368.28 416.497L339.931 432.709C339.735 432.709 339.735 432.709 339.735 432.709Z" fill="#524946"/>
<path d="M369.257 252.041C369.257 252.041 318.619 302.042 319.597 311.417C320.575 320.792 344.427 405.364 344.427 405.364L364.37 400.286C364.37 400.286 348.142 327.823 351.075 322.55C354.007 317.081 384.898 293.643 392.915 283.682C400.931 273.721 398.584 266.689 398.584 266.689C398.584 266.689 374.927 249.502 369.257 252.041Z" fill="#2C2C31"/>
<path d="M370.039 422.161C370.039 422.161 371.212 418.646 370.626 418.255C370.039 417.864 369.844 417.279 369.844 417.279C369.844 417.279 351.465 427.826 350.879 428.412C350.292 428.802 339.148 435.443 339.148 435.443C339.148 435.443 341.299 436.81 341.69 436.615C342.081 436.224 370.039 422.161 370.039 422.161Z" fill="#4E4441"/>
<path d="M352.053 321.183C352.053 321.183 371.409 295.01 373.755 288.76C376.296 282.51 377.469 273.721 376.883 270.791C376.296 267.861 371.409 260.83 373.95 259.853C378.056 258.291 382.748 276.846 384.703 273.916C386.659 270.986 380.793 254.58 384.312 258.095C389.2 262.978 391.742 272.353 391.742 272.353C391.742 272.353 391.742 260.635 393.306 255.947C394.284 253.212 398.194 269.033 396.434 274.893C395.848 276.846 394.675 278.994 393.111 281.143C390.178 285.635 386.659 289.737 382.553 293.252L352.053 321.183Z" fill="#222222"/>
<path d="M352.248 336.417H352.052C351.857 336.222 351.857 336.027 351.857 335.832C352.052 335.636 367.107 313.37 371.995 305.167C374.341 301.26 379.229 296.182 383.726 291.299C388.809 285.83 393.697 280.752 394.87 277.627C397.021 271.768 395.065 260.049 394.87 259.853C394.87 259.658 395.065 259.267 395.261 259.267C395.456 259.267 395.847 259.463 395.847 259.658C395.847 260.244 397.998 271.768 395.652 277.822C394.479 281.143 389.591 286.221 384.312 291.885C379.62 296.768 374.928 301.846 372.581 305.557C367.694 313.565 352.639 336.027 352.443 336.222C352.443 336.417 352.443 336.417 352.248 336.417Z" fill="#1C1C25"/>
<path d="M386.072 287.979L375.514 264.932C375.319 264.736 375.514 264.346 375.71 264.346C375.905 264.15 376.296 264.346 376.296 264.541L385.876 285.245C386.658 282.901 388.027 277.237 387.831 272.158C387.636 265.518 383.921 258.486 383.921 258.486C383.726 258.291 383.921 257.9 384.117 257.9C384.312 257.705 384.703 257.9 384.703 258.095C384.899 258.291 388.418 265.322 388.809 272.158C389.004 278.994 386.658 286.612 386.463 286.807L386.072 287.979Z" fill="black"/>
<path d="M348.338 323.331C348.338 323.331 348.142 323.331 348.338 323.331L336.216 320.792C336.02 320.792 335.825 320.401 335.825 320.206C335.825 320.011 336.216 319.815 336.411 319.815L346.383 321.964L334.456 312.003C334.261 311.807 334.261 311.612 334.456 311.221C334.652 311.026 334.847 311.026 335.238 311.221L348.533 322.355C348.729 322.55 348.729 322.745 348.729 322.94C348.729 323.331 348.533 323.331 348.338 323.331Z" fill="black"/>
<path d="M349.902 319.62C349.706 319.62 349.511 319.62 349.511 319.425L344.037 309.073C343.841 308.878 344.037 308.487 344.232 308.487C344.428 308.292 344.819 308.487 344.819 308.682L350.293 319.034C350.489 319.229 350.293 319.62 350.098 319.62C349.902 319.62 349.902 319.62 349.902 319.62Z" fill="black"/>
<path d="M363.196 397.356C363.001 397.356 362.805 397.161 362.805 396.966L350.097 327.823C350.097 327.628 350.292 327.237 350.488 327.237C350.683 327.237 351.074 327.433 351.074 327.628L363.783 396.77C363.783 396.966 363.587 397.161 363.196 397.356Z" fill="black"/>
<path d="M362.023 391.497C361.632 391.497 361.437 391.106 361.632 390.911C362.023 389.544 371.213 358.684 372.972 355.168C374.927 351.261 385.681 340.519 397.998 328.214C411.097 315.128 426.152 300.089 433.581 290.323C446.876 272.744 446.876 266.494 446.681 262.002C446.681 261.611 446.681 261.22 446.681 261.025C446.681 260.83 446.876 260.635 447.267 260.635C447.463 260.635 447.658 260.83 447.658 261.221C447.658 261.611 447.658 262.002 447.658 262.197C447.658 266.885 447.854 273.33 434.363 291.104C426.934 301.065 411.879 315.909 398.78 328.995C386.463 341.3 375.709 352.043 373.95 355.754C372.19 359.074 362.805 390.911 362.61 391.301C362.414 391.301 362.219 391.497 362.023 391.497Z" fill="#282832"/>
<path d="M372.973 353.801C371.995 353.801 370.04 352.433 366.13 348.918C364.957 347.746 363.197 346.379 363.001 346.183C362.806 346.183 362.61 345.793 362.61 345.597C362.61 345.402 363.001 345.207 363.197 345.207C363.588 345.207 364.565 345.988 366.912 348.136C368.671 349.699 371.995 352.629 372.973 352.824C372.777 350.48 369.649 338.761 367.889 332.706C367.889 332.511 367.889 332.12 368.28 332.12C368.476 332.12 368.867 332.12 368.867 332.511C369.062 333.292 373.95 350.285 373.95 352.824C373.95 353.41 373.559 353.605 373.559 353.605C373.364 353.605 373.168 353.801 372.973 353.801Z" fill="black"/>
<path d="M377.078 348.332C376.883 348.332 376.687 348.136 376.687 347.941L374.146 333.488C374.146 333.292 374.341 332.902 374.537 332.902C374.732 332.902 375.123 333.097 375.123 333.292L377.665 347.746C377.665 347.941 377.469 348.136 377.078 348.332C377.274 348.332 377.274 348.332 377.078 348.332Z" fill="black"/>
<path d="M440.62 265.322L417.745 262.783C417.549 262.783 417.549 262.783 417.353 262.588C417.353 262.392 417.158 262.392 417.353 262.197L417.94 258.681C417.94 258.486 418.331 258.291 418.527 258.291L440.815 261.807C441.011 261.807 441.206 262.002 441.206 262.197V264.736C441.206 264.932 441.206 264.932 441.011 265.127C441.011 265.127 440.815 265.322 440.62 265.322ZM418.527 261.807L440.229 264.15V262.588L418.918 259.267L418.527 261.807Z" fill="black"/>
<path d="M237.286 91.6857C237.286 91.6857 238.459 97.7405 239.632 101.256C240.219 103.209 241.001 105.748 241.001 105.748L274.825 112.389L272.283 100.67L237.286 91.6857Z" fill="#EBEBEC"/>
<path d="M273.847 106.725C273.847 106.725 273.652 106.725 273.847 106.725L238.655 98.9124C238.459 98.9124 238.264 98.5218 238.264 98.3265C238.264 98.1311 238.655 97.9358 238.85 97.9358L274.043 105.748C274.238 105.748 274.434 106.139 274.434 106.334C274.238 106.53 274.043 106.725 273.847 106.725Z" fill="white"/>
<path d="M268.568 111.608C268.372 111.608 268.177 111.413 268.177 111.217L266.417 99.3031C266.417 99.1077 266.612 98.7171 266.808 98.7171C267.004 98.7171 267.395 98.9124 267.395 99.1077L269.154 111.022C269.154 111.217 268.959 111.608 268.568 111.608C268.763 111.608 268.568 111.608 268.568 111.608Z" fill="white"/>
<path d="M259.379 109.655C259.183 109.655 258.988 109.46 258.988 109.264L257.228 96.7639C257.228 96.5686 257.424 96.178 257.619 96.178C257.815 96.178 258.206 96.3733 258.206 96.5686L259.965 109.069C259.965 109.46 259.77 109.655 259.379 109.655Z" fill="white"/>
<path d="M249.408 107.702C249.213 107.702 249.017 107.506 249.017 107.311L246.671 94.4201C246.671 94.2248 246.866 93.8342 247.062 93.8342C247.257 93.8342 247.648 94.0295 247.648 94.2248L249.995 107.116C249.995 107.311 249.799 107.506 249.408 107.702Z" fill="white"/>
<path d="M275.02 114.147C274.825 114.147 274.825 114.147 275.02 114.147L263.485 112.194C263.289 112.194 263.094 111.803 263.094 111.608C263.094 111.413 263.485 111.217 263.68 111.217L275.02 113.171C275.216 113.171 275.411 113.561 275.411 113.756C275.411 114.147 275.216 114.147 275.02 114.147Z" fill="#EEEEEE"/>
<path d="M266.808 117.467L244.52 113.756C244.324 113.756 244.129 113.366 244.129 113.171C244.129 112.975 244.52 112.78 244.715 112.78L266.808 116.491C267.004 116.491 267.199 116.882 267.199 117.077C267.199 117.272 267.004 117.467 266.808 117.467Z" fill="#EEEEEE"/>
<path d="M268.764 120.397C268.764 120.397 268.568 120.397 268.764 120.397L246.475 116.686C246.279 116.686 246.084 116.296 246.084 116.1C246.084 115.905 246.279 115.71 246.671 115.71L268.764 119.421C268.959 119.421 269.155 119.811 269.155 120.007C269.155 120.202 268.959 120.397 268.764 120.397Z" fill="#EEEEEE"/>
<path d="M265.049 87.3887L263.29 80.5526L254.883 84.0683L253.318 77.8182L246.28 80.3573L244.52 76.451L240.023 78.4041C239.828 78.5995 239.437 78.4041 239.437 78.2088C239.241 78.0135 239.437 77.6229 239.632 77.6229L244.911 75.2791L246.866 79.3807L254.1 76.8416L255.469 82.8964L263.876 79.3807L265.636 86.0215L273.456 81.7245C273.652 81.5292 274.043 81.7245 274.043 81.9199C274.238 82.1152 274.043 82.5058 273.847 82.5058L265.049 87.3887Z" fill="#396E75"/>
<path d="M184.692 269.353H110.788L111.961 253.923L185.279 253.728L184.692 269.353Z" fill="#9C2231"/>
<path d="M184.692 269.353H140.311L111.766 256.853L111.961 253.923L185.279 253.728L184.692 269.353Z" fill="#CA273A"/>
<path d="M173.744 256.853L173.548 266.228H151.26V257.244L173.744 256.853Z" fill="white"/>
<path d="M149.304 257.244L149.5 266.228H145.785L145.589 257.244H149.304Z" fill="white"/>
<path d="M181.564 253.923H107.66L108.833 238.298H182.15L181.564 253.923Z" fill="#333333"/>
<path d="M181.564 253.923H169.247L115.285 238.298H182.151L181.564 253.923Z" fill="#4F4F4F"/>
<path d="M170.811 241.423L170.42 250.798H148.131V241.814L170.811 241.423Z" fill="white"/>
<path d="M146.176 241.814L146.371 250.798H142.852L142.461 241.814H146.176Z" fill="white"/>
<path d="M98.4703 238.298H171.201L171.006 223.259L97.8838 222.477L98.4703 238.298Z" fill="#635D6C"/>
<path d="M171.202 238.298H150.086L109.419 222.673L171.006 223.258L171.202 238.298Z" fill="#847E8F"/>
<path d="M109.419 225.798L109.615 234.978H131.903V225.993L109.419 225.798Z" fill="white"/>
<path d="M133.859 225.993L133.663 234.978H137.378L137.573 225.993H133.859Z" fill="white"/>
<g clip-path="url(#clip0)">
<path d="M447.673 363.886L473.627 480.378L486.997 480.642L473.889 360.98L447.673 363.886Z" fill="#E9E9E9"/>
<path d="M462.092 355.961C458.159 355.697 453.965 357.018 450.819 359.131C449.508 360.188 448.197 361.244 447.935 362.829C447.935 363.093 447.935 363.358 447.935 363.886C447.935 364.414 448.459 364.678 448.722 364.942C450.294 366.527 452.654 367.056 455.013 367.32C459.208 367.848 463.402 367.584 467.335 366.527C468.646 366.263 469.956 365.735 471.267 364.942C472.054 364.678 472.578 364.15 473.365 363.358C473.889 362.829 474.151 361.773 474.151 360.98C473.889 359.659 472.84 358.867 471.529 358.339C468.646 357.282 466.024 357.018 462.616 357.546C462.354 357.282 462.092 356.225 462.092 355.961Z" fill="#F8F8F8"/>
<g opacity="0.48">
<path opacity="0.48" d="M448.197 364.678C448.197 364.678 448.459 364.942 449.245 365.207C449.77 365.735 450.818 365.999 452.129 366.263C454.489 366.792 457.897 366.792 461.043 366.527C464.188 366.263 467.597 365.471 469.694 364.414C470.742 363.886 471.791 363.358 472.315 363.093C473.102 362.565 473.364 362.301 473.364 362.301C473.364 362.301 473.102 362.565 472.578 363.358C472.053 363.886 471.267 364.678 470.218 365.207C467.859 366.527 464.713 367.584 461.305 367.848C459.47 368.112 457.897 368.112 456.324 367.848C454.489 367.584 453.178 367.32 451.867 367.056C450.556 366.527 449.77 365.999 449.245 365.471C448.459 364.942 448.197 364.678 448.197 364.678Z" fill="white"/>
</g>
<g opacity="0.48">
<path opacity="0.48" d="M460.781 358.075C460.781 358.075 459.994 358.339 458.683 358.603C457.897 358.867 457.11 359.131 456.324 359.395C455.537 359.924 454.489 360.188 453.702 360.98C453.44 361.244 453.178 361.773 453.178 362.301C453.178 362.829 453.702 363.093 454.227 363.358C455.013 363.886 456.586 363.886 457.897 364.15C460.781 364.414 463.927 363.622 466.81 362.829C468.121 362.301 469.956 361.773 469.694 360.98C469.432 360.716 468.908 360.452 468.121 360.188C467.335 359.924 466.81 359.924 466.024 359.924C464.713 359.924 463.14 359.924 461.829 360.188C461.305 360.188 460.518 360.452 459.994 360.716C459.47 360.716 458.683 360.98 458.683 361.244C458.421 361.509 458.683 361.773 459.47 361.773C459.994 361.773 460.518 361.773 461.043 361.773C462.091 361.773 462.878 361.773 463.402 361.773C464.713 361.773 465.5 361.509 465.5 361.509C465.5 361.509 464.713 361.773 463.402 362.037C462.616 362.037 461.829 362.301 461.043 362.301C460.518 362.301 459.994 362.301 459.47 362.301C459.208 362.301 458.946 362.301 458.421 362.037C457.897 362.037 457.635 361.244 457.897 360.98C458.946 359.924 460.256 359.659 461.567 359.131C462.878 358.867 464.451 358.603 466.024 358.867C466.81 358.867 467.597 359.131 468.383 359.131C469.17 359.395 470.218 359.395 470.743 360.452C471.005 360.98 471.005 361.773 470.743 362.301C470.481 362.829 469.956 363.093 469.694 363.358C468.645 363.358 467.859 363.886 467.072 363.886C463.927 364.678 460.781 365.207 457.897 365.207C456.324 364.943 455.013 364.942 453.702 364.15C452.916 363.886 452.129 363.093 452.129 362.301C452.129 361.509 452.654 360.716 453.178 360.452C454.227 359.659 455.275 359.395 456.062 359.131C457.11 358.603 457.897 358.603 458.683 358.339C459.994 358.075 460.781 358.075 460.781 358.075Z" fill="#8E8A94"/>
</g>
<path d="M521.077 369.433L501.677 480.378L488.307 480.642L494.861 366.792L521.077 369.433Z" fill="#E9E9E9"/>
<path d="M506.658 361.773C510.591 361.508 514.785 362.829 517.931 364.942C519.242 365.735 520.553 367.056 520.815 368.641C520.815 368.905 520.815 369.169 520.815 369.697C520.815 370.226 520.291 370.49 520.029 370.754C518.456 372.339 516.096 372.867 513.737 373.131C509.542 373.66 505.348 373.395 501.415 372.339C500.105 372.075 498.794 371.546 497.483 370.754C496.959 370.226 496.172 369.697 495.648 369.169C495.123 368.641 494.861 367.584 494.861 366.792C495.123 365.471 496.172 364.678 497.483 364.15C500.367 363.093 502.988 362.829 506.396 363.358C506.396 363.093 506.658 362.037 506.658 361.773Z" fill="#F8F8F8"/>
<g opacity="0.48">
<path d="M519.756 369.776C519.756 369.776 519.494 370.04 518.969 370.568C518.445 371.097 517.396 371.625 516.085 372.153C514.775 372.418 513.464 372.946 511.891 372.946C510.318 373.21 508.483 373.21 506.91 372.946C503.502 372.682 500.094 371.625 497.996 370.304C496.948 369.776 496.161 368.984 495.637 368.455C495.113 367.927 494.851 367.399 494.851 367.399C494.851 367.399 495.113 367.663 495.637 368.191C496.161 368.719 497.21 369.248 498.259 369.512C500.618 370.304 503.764 371.361 506.91 371.625C510.056 371.889 513.464 371.625 515.823 371.361C517.134 371.097 518.183 370.568 518.707 370.304C519.231 370.04 519.756 369.776 519.756 369.776Z" fill="#C1C1C1"/>
</g>
<path opacity="0.48" d="M507.969 363.886C507.969 363.886 508.756 363.886 510.067 364.15C510.853 364.414 511.639 364.414 512.426 364.678C513.212 364.942 514.261 365.207 515.31 365.999C515.834 366.527 516.358 367.056 516.358 367.848C516.358 368.641 515.572 369.433 515.048 369.697C513.737 370.226 512.426 370.49 510.853 370.754C507.707 371.018 504.561 370.49 501.677 369.433C500.891 369.169 500.104 368.905 499.318 368.641C499.056 368.376 498.532 368.112 498.269 367.584C498.007 367.056 498.007 366.263 498.269 365.735C498.794 364.678 500.104 364.678 500.629 364.414C501.415 364.15 502.202 364.15 502.988 364.15C504.561 364.15 505.872 364.15 507.445 364.414C508.756 364.942 510.067 365.207 511.115 366.263C511.377 366.527 511.115 367.32 510.853 367.584C510.591 367.848 510.067 367.848 509.804 367.848C509.28 367.848 508.756 367.848 508.231 367.848C507.183 367.848 506.396 367.584 505.872 367.584C504.561 367.32 503.775 367.056 503.775 367.056C503.775 367.056 504.561 367.056 505.872 367.32C506.658 367.32 507.445 367.32 508.231 367.32C508.756 367.32 509.28 367.32 509.804 367.32C510.329 367.32 510.591 367.056 510.591 366.792C510.067 366.792 509.28 366.527 508.756 366.263C508.231 365.999 507.707 365.999 506.921 365.735C505.61 365.471 504.299 365.471 502.726 365.471C501.94 365.471 501.415 365.735 500.629 365.735C499.842 365.999 499.318 365.999 499.056 366.527C498.532 367.32 500.367 367.848 501.94 368.376C504.823 369.169 507.969 369.961 510.853 369.697C512.164 369.433 513.737 369.433 514.785 368.905C515.31 368.641 515.572 368.376 515.834 367.848C515.834 367.32 515.572 366.792 515.31 366.527C514.523 365.735 513.475 365.471 512.688 364.942C511.902 364.678 511.115 364.414 510.329 364.15C508.756 363.886 507.969 363.886 507.969 363.886Z" fill="#B7B7B7"/>
<path d="M449.583 385.979L446.979 386.282L457.823 480.75L460.427 480.447L449.583 385.979Z" fill="#C5C5C5"/>
<path d="M460.335 385.989L457.73 386.293L468.574 480.76L471.179 480.457L460.335 385.989Z" fill="#C5C5C5"/>
<path d="M471.343 385.97L468.738 386.274L479.582 480.741L482.187 480.438L471.343 385.97Z" fill="#C5C5C5"/>
<path d="M482.094 385.979L479.489 386.283L490.333 480.75L492.938 480.447L482.094 385.979Z" fill="#C5C5C5"/>
<path d="M493.102 385.961L490.498 386.264L501.342 480.732L503.946 480.428L493.102 385.961Z" fill="#C5C5C5"/>
<path d="M503.851 385.971L501.247 386.275L512.091 480.742L514.695 480.439L503.851 385.971Z" fill="#C5C5C5"/>
<path d="M514.722 386.073L512.118 386.376L517.479 433.085L520.084 432.782L514.722 386.073Z" fill="#C5C5C5"/>
<path d="M522.897 386.023L512.035 480.491L514.639 480.795L525.502 386.328L522.897 386.023Z" fill="#C5C5C5"/>
<path d="M512.07 385.934L501.207 480.402L503.811 480.706L514.674 386.238L512.07 385.934Z" fill="#C5C5C5"/>
<path d="M501.241 385.844L490.378 480.312L492.983 480.616L503.846 386.148L501.241 385.844Z" fill="#C5C5C5"/>
<path d="M490.383 386.017L479.52 480.485L482.124 480.789L492.987 386.321L490.383 386.017Z" fill="#C5C5C5"/>
<path d="M479.555 385.927L468.692 480.394L471.296 480.698L482.159 386.231L479.555 385.927Z" fill="#C5C5C5"/>
<path d="M468.726 385.837L457.863 480.305L460.468 480.609L471.33 386.141L468.726 385.837Z" fill="#C5C5C5"/>
<path d="M457.888 385.945L452.487 432.916L455.091 433.22L460.492 386.249L457.888 385.945Z" fill="#C5C5C5"/>
<path d="M515.572 476.944H456.848V483.283H515.572V476.944Z" fill="#C5C5C5"/>
<path d="M526.058 385.282H446.624L446.886 388.452H525.534L526.058 385.282Z" fill="#C5C5C5"/>
</g>
<g clip-path="url(#clip1)">
<path d="M112.933 360.015C114.862 360.337 116.79 360.659 118.397 361.465C120.165 362.271 121.772 363.882 122.415 365.816C123.057 367.749 122.575 370.328 121.129 371.617C120.165 372.261 119.04 372.584 117.915 372.584C111.005 373.067 104.095 369.522 97.1844 369.844C95.8987 369.844 94.6131 370.005 93.4882 369.522C92.3633 368.877 91.5598 367.105 92.3633 365.977" fill="#E4E4E7"/>
<path d="M79.3464 394.176C78.0607 388.053 77.7393 381.607 78.0607 375.323C78.2215 371.294 78.8643 367.105 81.1141 364.043C83.2032 361.304 86.2566 359.692 89.1492 358.403C91.399 357.275 93.9703 356.147 96.3808 356.308C97.6664 356.308 99.1127 356.792 100.398 357.114C103.612 357.759 106.987 357.598 110.362 358.081C113.576 358.564 117.111 359.692 119.201 362.432C115.826 362.915 112.29 364.688 108.755 364.043C106.987 363.721 105.059 363.076 103.291 363.56C103.452 363.56 105.059 365.493 105.219 365.816C105.541 367.105 104.898 367.427 104.255 368.555C102.648 370.972 101.041 373.228 99.5948 375.484C99.1127 376.129 98.6306 376.934 97.8271 377.257C97.345 377.418 96.8629 377.579 96.3808 377.579C94.131 377.901 91.8811 378.062 89.6313 378.385C90.9169 380.318 94.9345 378.868 95.738 381.124C93.3275 384.991 89.9527 388.214 86.0959 390.631C83.6853 391.759 81.9176 393.371 79.3464 394.176Z" fill="#CACACE"/>
<path d="M13.1371 352.924C9.76237 352.28 6.06623 353.408 3.6557 355.986C1.24516 358.564 0.441654 362.432 1.24516 365.816C1.56657 366.783 1.88797 367.749 2.53078 368.555C3.49499 369.844 4.94131 370.65 6.54833 371.133C9.60167 372.1 13.1371 371.778 15.8691 369.844C18.4403 368.072 19.8866 365.01 21.6543 362.432C23.4221 359.853 25.9933 357.275 29.2073 357.275" fill="#E4E4E7"/>
<path d="M101.845 323.114C106.184 322.791 110.523 324.403 113.576 327.625C115.022 329.237 116.308 331.009 117.915 332.46C121.29 335.521 126.754 335.844 130.45 333.265C131.414 332.621 132.217 331.815 132.86 330.848C133.985 329.076 133.985 326.659 133.182 324.564C132.539 322.469 131.253 320.858 129.807 319.246C127.718 316.829 124.825 314.573 121.772 314.734" fill="#E4E4E7"/>
<path d="M78.7034 359.37C81.1139 355.342 85.935 353.247 89.4704 350.669C93.9701 347.285 98.1484 344.545 102.005 340.356C102.969 339.389 107.148 336.81 106.987 335.199C106.826 333.265 100.077 332.46 98.4698 331.976C101.362 329.237 106.183 330.848 109.88 329.398C111.165 328.753 112.451 327.787 113.415 326.659C115.343 324.564 116.951 321.986 119.04 319.891C120.004 318.924 124.986 314.895 126.432 316.185C121.129 311.673 113.415 310.222 106.826 312.478C105.862 312.801 104.898 313.284 103.934 313.284C101.202 313.606 98.7912 311.834 96.2199 311.511C90.1133 310.383 84.1673 315.862 80.3104 319.73C81.596 319.73 82.8817 320.052 84.1673 320.696C84.8101 321.019 85.4529 321.502 85.2922 322.147C85.1315 322.63 84.8101 322.791 84.328 323.114C83.2031 323.597 82.0781 324.08 80.9532 324.242C79.6676 324.403 78.382 324.564 77.4178 325.37C76.9357 325.853 76.6143 326.659 76.2929 327.303C74.2037 332.46 72.436 337.777 73.0788 343.256C73.7216 348.896 75.6501 354.214 77.7392 359.531" fill="#CACACE"/>
<path d="M52.188 387.57C52.8308 377.74 53.3129 367.105 48.0097 358.887C46.5634 356.631 44.7957 353.891 41.9031 353.891C40.296 353.891 38.8497 354.536 37.2427 354.214C38.2069 353.086 39.3318 352.28 40.6174 351.797C40.9389 351.635 41.2603 351.474 41.2603 351.152C41.2603 350.991 41.0996 350.669 40.7781 350.669C38.2069 349.218 36.2785 348.413 33.0644 348.413C30.3325 348.413 27.4399 349.057 24.8686 350.185C24.3865 350.507 23.7437 350.669 23.2616 350.83C22.7795 350.991 22.1367 350.83 21.4939 350.83C17.9585 350.669 14.423 350.991 10.8876 351.797C8.47703 352.28 6.06649 353.247 4.45947 355.019C8.95913 355.18 13.6195 355.342 17.3156 357.759C19.2441 359.048 20.8511 360.981 22.4581 362.754C24.3865 364.849 28.2434 370.005 31.6181 368.716C33.7073 367.911 36.1178 367.749 38.3676 368.233C37.082 369.683 34.5108 369.844 33.7073 371.617C33.868 371.133 39.4925 373.873 39.9746 374.195C42.0638 375.484 43.6708 376.934 45.4385 378.546C48.3312 381.285 50.9024 384.025 52.188 387.57Z" fill="#CACACE"/>
<path d="M19.4048 302.649C16.8336 302.327 14.2624 302.004 11.6911 301.682C9.60201 301.521 7.35218 301.36 5.26305 302.327C3.33463 303.454 1.72761 306.355 2.53112 308.933C3.17392 311.189 5.26305 312.317 7.19148 312.639C11.6911 313.445 16.1908 311.511 20.5297 310.384C24.8687 309.256 30.0112 308.772 33.7073 312.156" fill="#E4E4E7"/>
<path d="M60.3837 359.853C59.9016 357.598 57.491 350.669 56.3661 349.057C53.4735 345.19 50.0987 342.773 46.4026 340.194C46.0812 339.872 45.5991 339.711 45.5991 339.228C45.4384 338.744 45.5991 338.422 45.5991 337.938C45.9205 336.649 46.2419 335.199 46.5633 333.91C45.117 333.104 43.1885 334.232 41.7422 333.749C40.6173 333.427 37.8854 331.332 38.5282 329.881C39.171 327.948 44.6349 326.498 46.0812 324.725C42.5457 324.725 38.8496 325.692 35.4748 325.047C31.618 324.242 31.1359 318.441 29.0467 315.54C24.2257 308.128 16.8334 302.971 8.95898 301.36C13.2979 300.876 17.4762 299.909 21.8152 300.071C25.9934 300.232 30.1717 301.199 33.7071 303.938C34.6713 304.744 35.6355 305.549 36.9212 305.872C37.7247 306.033 38.5282 305.872 39.3317 305.872C41.0994 305.549 43.0278 305.227 44.9563 304.905C47.2061 304.582 49.6166 304.099 51.7057 305.066C56.3661 306.838 58.4552 316.99 58.9373 322.308C57.6517 322.952 56.5268 323.919 55.5626 324.886C58.1338 326.175 59.9016 329.076 60.8658 332.137C63.5977 340.678 61.83 350.185 59.4194 358.564" fill="#CACACE"/>
<path d="M36.7609 306.033C45.2781 310.061 49.7778 318.279 52.6704 326.82C55.563 335.199 57.4915 344.062 58.7771 352.924C60.3841 363.399 61.0269 373.873 61.509 384.347C61.6697 389.664 61.8304 394.982 61.9911 400.139C62.1518 405.617 61.6697 411.257 62.4732 416.575C62.6339 417.219 63.4375 416.897 63.4375 416.414C64.0803 410.29 63.4375 403.845 63.2767 397.721C63.116 391.759 62.9553 385.797 62.6339 379.835C61.9911 369.522 61.1876 359.048 59.4199 348.735C56.8487 333.588 52.8311 312.156 36.9216 305.549C36.7609 305.71 36.6002 306.033 36.7609 306.033Z" fill="#EEEEEE"/>
<path d="M102.97 312.801C86.8995 319.407 80.6322 336.166 78.2216 352.119C75.1683 372.422 71.7936 393.048 71.9543 413.674C71.9543 414.641 73.4006 414.641 73.4006 413.674C73.0792 393.854 76.4539 374.356 79.1858 354.858C81.5964 337.777 86.8995 321.824 103.291 313.606C103.613 313.284 103.452 312.639 102.97 312.801Z" fill="#EEEEEE"/>
<path d="M23.1006 350.991C32.7428 355.664 41.9028 362.271 46.7238 372.261C51.7056 382.735 52.8305 394.499 53.7947 405.94C53.7947 406.906 55.2411 406.906 55.2411 405.94C54.5982 394.176 53.1519 381.607 47.6881 370.972C42.7063 361.143 33.3856 354.697 23.422 350.507C23.1006 350.507 22.9399 350.991 23.1006 350.991Z" fill="#EEEEEE"/>
<path d="M100.398 356.792C92.0419 359.854 86.0959 365.655 83.2033 374.034C81.2749 379.513 80.15 385.475 79.1858 391.276C78.2215 396.755 77.2573 402.394 77.2573 407.873C77.2573 408.357 77.9001 408.357 78.0608 408.034C79.9893 398.527 80.4714 388.698 82.8819 379.351C85.4531 369.361 90.7563 361.304 100.559 357.275C100.72 357.114 100.559 356.792 100.398 356.792Z" fill="#EEEEEE"/>
</g>
<path d="M82.1222 436.157H50.946L45 397H88.0682L82.1222 436.157Z" fill="#D4D3D9"/>
<path opacity="0.45" d="M86.3004 407.958L86.7825 405.702H46.4463L46.7677 407.958H86.3004Z" fill="#D4D3D9"/>
<defs>
<clipPath id="clip0">
<rect width="89.3963" height="127.322" fill="white" transform="translate(436.663 355.961)"/>
</clipPath>
<clipPath id="clip1">
<rect width="132.74" height="143.576" fill="white" transform="translate(0.923828 300.071)"/>
</clipPath>
</defs>
</svg>
