<svg width="689" height="436" viewBox="0 0 689 436" fill="none" xmlns="http://www.w3.org/2000/svg">
<circle cx="80.8687" cy="5.60519" r="1.32571" fill="#D5D1DA"/>
<circle cx="80.8687" cy="20.1881" r="1.32571" fill="#D5D1DA"/>
<circle cx="94.126" cy="5.60519" r="1.32571" fill="#D5D1DA"/>
<circle cx="94.126" cy="20.1881" r="1.32571" fill="#D5D1DA"/>
<circle cx="107.383" cy="5.60519" r="1.32571" fill="#D5D1DA"/>
<circle cx="107.383" cy="20.1881" r="1.32571" fill="#D5D1DA"/>
<circle cx="80.8687" cy="34.771" r="1.32571" fill="#D5D1DA"/>
<circle cx="94.126" cy="34.771" r="1.32571" fill="#D5D1DA"/>
<circle cx="107.383" cy="34.771" r="1.32571" fill="#D5D1DA"/>
<circle cx="80.8687" cy="49.3538" r="1.32571" fill="#D5D1DA"/>
<circle cx="80.8687" cy="62.6109" r="1.32571" fill="#D5D1DA"/>
<circle cx="94.126" cy="49.3538" r="1.32571" fill="#D5D1DA"/>
<circle cx="94.126" cy="62.6109" r="1.32571" fill="#D5D1DA"/>
<circle cx="107.383" cy="49.3538" r="1.32571" fill="#D5D1DA"/>
<circle cx="107.383" cy="62.6109" r="1.32571" fill="#D5D1DA"/>
<circle cx="80.8687" cy="75.8681" r="1.32571" fill="#D5D1DA"/>
<circle cx="94.126" cy="75.8681" r="1.32571" fill="#D5D1DA"/>
<circle cx="107.383" cy="75.8681" r="1.32571" fill="#D5D1DA"/>
<circle cx="120.64" cy="49.3538" r="1.32571" fill="#D5D1DA"/>
<circle cx="120.64" cy="62.6109" r="1.32571" fill="#D5D1DA"/>
<circle cx="133.897" cy="49.3538" r="1.32571" fill="#D5D1DA"/>
<circle cx="133.897" cy="62.6109" r="1.32571" fill="#D5D1DA"/>
<circle cx="147.154" cy="49.3538" r="1.32571" fill="#D5D1DA"/>
<circle cx="147.154" cy="62.6109" r="1.32571" fill="#D5D1DA"/>
<circle cx="120.64" cy="75.8681" r="1.32571" fill="#D5D1DA"/>
<circle cx="133.897" cy="75.8681" r="1.32571" fill="#D5D1DA"/>
<circle cx="147.154" cy="75.8681" r="1.32571" fill="#D5D1DA"/>
<circle cx="120.64" cy="5.60519" r="1.32571" fill="#D5D1DA"/>
<circle cx="120.64" cy="20.1881" r="1.32571" fill="#D5D1DA"/>
<circle cx="133.897" cy="5.60519" r="1.32571" fill="#D5D1DA"/>
<circle cx="133.897" cy="20.1881" r="1.32571" fill="#D5D1DA"/>
<circle cx="147.154" cy="5.60519" r="1.32571" fill="#D5D1DA"/>
<circle cx="147.154" cy="20.1881" r="1.32571" fill="#D5D1DA"/>
<circle cx="120.64" cy="34.771" r="1.32571" fill="#D5D1DA"/>
<circle cx="133.897" cy="34.771" r="1.32571" fill="#D5D1DA"/>
<circle cx="147.154" cy="34.771" r="1.32571" fill="#D5D1DA"/>
<circle cx="161.738" cy="5.60526" r="1.32571" fill="#D5D1DA"/>
<circle cx="161.736" cy="20.1881" r="1.32571" fill="#D5D1DA"/>
<circle cx="174.994" cy="5.60519" r="1.32571" fill="#D5D1DA"/>
<circle cx="174.994" cy="20.1881" r="1.32571" fill="#D5D1DA"/>
<circle cx="188.251" cy="5.60519" r="1.32571" fill="#D5D1DA"/>
<circle cx="188.251" cy="20.1881" r="1.32571" fill="#D5D1DA"/>
<circle cx="161.736" cy="34.7709" r="1.32571" fill="#D5D1DA"/>
<circle cx="174.994" cy="34.7709" r="1.32571" fill="#D5D1DA"/>
<circle cx="188.251" cy="34.7709" r="1.32571" fill="#D5D1DA"/>
<circle cx="161.736" cy="49.3537" r="1.32571" fill="#D5D1DA"/>
<circle cx="161.736" cy="62.6109" r="1.32571" fill="#D5D1DA"/>
<circle cx="174.994" cy="49.3537" r="1.32571" fill="#D5D1DA"/>
<circle cx="174.994" cy="62.6109" r="1.32571" fill="#D5D1DA"/>
<circle cx="188.251" cy="49.3537" r="1.32571" fill="#D5D1DA"/>
<circle cx="188.251" cy="62.6109" r="1.32571" fill="#D5D1DA"/>
<circle cx="161.736" cy="75.8681" r="1.32571" fill="#D5D1DA"/>
<circle cx="174.994" cy="75.8681" r="1.32571" fill="#D5D1DA"/>
<circle cx="188.251" cy="75.8681" r="1.32571" fill="#D5D1DA"/>
<circle cx="201.508" cy="49.3537" r="1.32571" fill="#D5D1DA"/>
<circle cx="201.508" cy="62.6109" r="1.32571" fill="#D5D1DA"/>
<circle cx="214.765" cy="49.3537" r="1.32571" fill="#D5D1DA"/>
<circle cx="214.765" cy="62.6109" r="1.32571" fill="#D5D1DA"/>
<circle cx="228.022" cy="49.3537" r="1.32571" fill="#D5D1DA"/>
<circle cx="228.022" cy="62.6109" r="1.32571" fill="#D5D1DA"/>
<circle cx="201.508" cy="75.8681" r="1.32571" fill="#D5D1DA"/>
<circle cx="214.765" cy="75.8681" r="1.32571" fill="#D5D1DA"/>
<circle cx="228.022" cy="75.8681" r="1.32571" fill="#D5D1DA"/>
<circle cx="201.508" cy="5.60519" r="1.32571" fill="#D5D1DA"/>
<circle cx="201.508" cy="20.1881" r="1.32571" fill="#D5D1DA"/>
<circle cx="214.765" cy="5.60519" r="1.32571" fill="#D5D1DA"/>
<circle cx="214.765" cy="20.1881" r="1.32571" fill="#D5D1DA"/>
<circle cx="228.022" cy="5.60519" r="1.32571" fill="#D5D1DA"/>
<circle cx="228.022" cy="20.1881" r="1.32571" fill="#D5D1DA"/>
<circle cx="201.508" cy="34.7709" r="1.32571" fill="#D5D1DA"/>
<circle cx="214.765" cy="34.7709" r="1.32571" fill="#D5D1DA"/>
<circle cx="228.022" cy="34.7709" r="1.32571" fill="#D5D1DA"/>
<circle cx="161.738" cy="89.1252" r="1.32571" fill="#D5D1DA"/>
<circle cx="161.736" cy="103.708" r="1.32571" fill="#D5D1DA"/>
<circle cx="174.994" cy="89.1252" r="1.32571" fill="#D5D1DA"/>
<circle cx="174.994" cy="103.708" r="1.32571" fill="#D5D1DA"/>
<circle cx="188.251" cy="89.1252" r="1.32571" fill="#D5D1DA"/>
<circle cx="188.251" cy="103.708" r="1.32571" fill="#D5D1DA"/>
<circle cx="161.736" cy="118.291" r="1.32571" fill="#D5D1DA"/>
<circle cx="174.994" cy="118.291" r="1.32571" fill="#D5D1DA"/>
<circle cx="188.251" cy="118.291" r="1.32571" fill="#D5D1DA"/>
<circle cx="161.736" cy="132.874" r="1.32571" fill="#D5D1DA"/>
<circle cx="161.736" cy="146.131" r="1.32571" fill="#D5D1DA"/>
<circle cx="174.994" cy="132.874" r="1.32571" fill="#D5D1DA"/>
<circle cx="174.994" cy="146.131" r="1.32571" fill="#D5D1DA"/>
<circle cx="188.251" cy="132.874" r="1.32571" fill="#D5D1DA"/>
<circle cx="188.251" cy="146.131" r="1.32571" fill="#D5D1DA"/>
<circle cx="161.736" cy="159.388" r="1.32571" fill="#D5D1DA"/>
<circle cx="174.994" cy="159.388" r="1.32571" fill="#D5D1DA"/>
<circle cx="188.251" cy="159.388" r="1.32571" fill="#D5D1DA"/>
<circle cx="201.508" cy="132.874" r="1.32571" fill="#D5D1DA"/>
<circle cx="201.508" cy="146.131" r="1.32571" fill="#D5D1DA"/>
<circle cx="214.765" cy="132.874" r="1.32571" fill="#D5D1DA"/>
<circle cx="214.765" cy="146.131" r="1.32571" fill="#D5D1DA"/>
<circle cx="228.022" cy="132.874" r="1.32571" fill="#D5D1DA"/>
<circle cx="228.022" cy="146.131" r="1.32571" fill="#D5D1DA"/>
<circle cx="201.508" cy="159.388" r="1.32571" fill="#D5D1DA"/>
<circle cx="214.765" cy="159.388" r="1.32571" fill="#D5D1DA"/>
<circle cx="228.022" cy="159.388" r="1.32571" fill="#D5D1DA"/>
<circle cx="201.508" cy="89.1252" r="1.32571" fill="#D5D1DA"/>
<circle cx="201.508" cy="103.708" r="1.32571" fill="#D5D1DA"/>
<circle cx="214.765" cy="89.1252" r="1.32571" fill="#D5D1DA"/>
<circle cx="214.765" cy="103.708" r="1.32571" fill="#D5D1DA"/>
<circle cx="228.022" cy="89.1252" r="1.32571" fill="#D5D1DA"/>
<circle cx="228.022" cy="103.708" r="1.32571" fill="#D5D1DA"/>
<circle cx="201.508" cy="118.291" r="1.32571" fill="#D5D1DA"/>
<circle cx="214.765" cy="118.291" r="1.32571" fill="#D5D1DA"/>
<circle cx="228.022" cy="118.291" r="1.32571" fill="#D5D1DA"/>
<circle cx="80.8687" cy="89.1252" r="1.32571" fill="#D5D1DA"/>
<circle cx="80.8687" cy="103.708" r="1.32571" fill="#D5D1DA"/>
<circle cx="94.126" cy="89.1252" r="1.32571" fill="#D5D1DA"/>
<circle cx="94.126" cy="103.708" r="1.32571" fill="#D5D1DA"/>
<circle cx="107.383" cy="89.1252" r="1.32571" fill="#D5D1DA"/>
<circle cx="107.383" cy="103.708" r="1.32571" fill="#D5D1DA"/>
<circle cx="80.8687" cy="118.291" r="1.32571" fill="#D5D1DA"/>
<circle cx="94.126" cy="118.291" r="1.32571" fill="#D5D1DA"/>
<circle cx="107.383" cy="118.291" r="1.32571" fill="#D5D1DA"/>
<circle cx="80.8687" cy="132.874" r="1.32571" fill="#D5D1DA"/>
<circle cx="80.8687" cy="146.131" r="1.32571" fill="#D5D1DA"/>
<circle cx="94.126" cy="132.874" r="1.32571" fill="#D5D1DA"/>
<circle cx="94.126" cy="146.131" r="1.32571" fill="#D5D1DA"/>
<circle cx="107.383" cy="132.874" r="1.32571" fill="#D5D1DA"/>
<circle cx="107.383" cy="146.131" r="1.32571" fill="#D5D1DA"/>
<circle cx="80.8687" cy="159.388" r="1.32571" fill="#D5D1DA"/>
<circle cx="94.126" cy="159.388" r="1.32571" fill="#D5D1DA"/>
<circle cx="107.383" cy="159.388" r="1.32571" fill="#D5D1DA"/>
<circle cx="120.64" cy="132.874" r="1.32571" fill="#D5D1DA"/>
<circle cx="120.64" cy="146.131" r="1.32571" fill="#D5D1DA"/>
<circle cx="133.897" cy="132.874" r="1.32571" fill="#D5D1DA"/>
<circle cx="133.897" cy="146.131" r="1.32571" fill="#D5D1DA"/>
<circle cx="147.154" cy="132.874" r="1.32571" fill="#D5D1DA"/>
<circle cx="147.154" cy="146.131" r="1.32571" fill="#D5D1DA"/>
<circle cx="120.64" cy="159.388" r="1.32571" fill="#D5D1DA"/>
<circle cx="133.897" cy="159.388" r="1.32571" fill="#D5D1DA"/>
<circle cx="147.154" cy="159.388" r="1.32571" fill="#D5D1DA"/>
<circle cx="120.64" cy="89.1252" r="1.32571" fill="#D5D1DA"/>
<circle cx="120.64" cy="103.708" r="1.32571" fill="#D5D1DA"/>
<circle cx="133.897" cy="89.1252" r="1.32571" fill="#D5D1DA"/>
<circle cx="133.897" cy="103.708" r="1.32571" fill="#D5D1DA"/>
<circle cx="147.154" cy="89.1252" r="1.32571" fill="#D5D1DA"/>
<circle cx="147.154" cy="103.708" r="1.32571" fill="#D5D1DA"/>
<circle cx="120.64" cy="118.291" r="1.32571" fill="#D5D1DA"/>
<circle cx="133.897" cy="118.291" r="1.32571" fill="#D5D1DA"/>
<circle cx="147.154" cy="118.291" r="1.32571" fill="#D5D1DA"/>
<circle cx="1.32571" cy="89.1252" r="1.32571" fill="#D5D1DA"/>
<circle cx="1.32571" cy="103.708" r="1.32571" fill="#D5D1DA"/>
<circle cx="14.5826" cy="89.1252" r="1.32571" fill="#D5D1DA"/>
<circle cx="14.5826" cy="103.708" r="1.32571" fill="#D5D1DA"/>
<circle cx="27.8404" cy="89.1252" r="1.32571" fill="#D5D1DA"/>
<circle cx="27.8404" cy="103.708" r="1.32571" fill="#D5D1DA"/>
<circle cx="1.32571" cy="118.291" r="1.32571" fill="#D5D1DA"/>
<circle cx="14.5826" cy="118.291" r="1.32571" fill="#D5D1DA"/>
<circle cx="27.8404" cy="118.291" r="1.32571" fill="#D5D1DA"/>
<circle cx="1.32571" cy="132.874" r="1.32571" fill="#D5D1DA"/>
<circle cx="1.32571" cy="146.131" r="1.32571" fill="#D5D1DA"/>
<circle cx="14.5826" cy="132.874" r="1.32571" fill="#D5D1DA"/>
<circle cx="14.5826" cy="146.131" r="1.32571" fill="#D5D1DA"/>
<circle cx="27.8404" cy="132.874" r="1.32571" fill="#D5D1DA"/>
<circle cx="27.8404" cy="146.131" r="1.32571" fill="#D5D1DA"/>
<circle cx="1.32571" cy="159.388" r="1.32571" fill="#D5D1DA"/>
<circle cx="14.5826" cy="159.388" r="1.32571" fill="#D5D1DA"/>
<circle cx="27.8404" cy="159.388" r="1.32571" fill="#D5D1DA"/>
<circle cx="41.0972" cy="132.874" r="1.32571" fill="#D5D1DA"/>
<circle cx="41.0972" cy="146.131" r="1.32571" fill="#D5D1DA"/>
<circle cx="54.3545" cy="132.874" r="1.32571" fill="#D5D1DA"/>
<circle cx="54.3545" cy="146.131" r="1.32571" fill="#D5D1DA"/>
<circle cx="67.6114" cy="132.874" r="1.32571" fill="#D5D1DA"/>
<circle cx="67.6114" cy="146.131" r="1.32571" fill="#D5D1DA"/>
<circle cx="41.0972" cy="159.388" r="1.32571" fill="#D5D1DA"/>
<circle cx="54.3545" cy="159.388" r="1.32571" fill="#D5D1DA"/>
<circle cx="67.6114" cy="159.388" r="1.32571" fill="#D5D1DA"/>
<circle cx="41.0972" cy="89.1252" r="1.32571" fill="#D5D1DA"/>
<circle cx="41.0972" cy="103.708" r="1.32571" fill="#D5D1DA"/>
<circle cx="54.3545" cy="89.1252" r="1.32571" fill="#D5D1DA"/>
<circle cx="54.3545" cy="103.708" r="1.32571" fill="#D5D1DA"/>
<circle cx="67.6114" cy="89.1252" r="1.32571" fill="#D5D1DA"/>
<circle cx="67.6114" cy="103.708" r="1.32571" fill="#D5D1DA"/>
<circle cx="41.0972" cy="118.291" r="1.32571" fill="#D5D1DA"/>
<circle cx="54.3545" cy="118.291" r="1.32571" fill="#D5D1DA"/>
<circle cx="67.6114" cy="118.291" r="1.32571" fill="#D5D1DA"/>
<circle cx="1.32571" cy="5.60519" r="1.32571" fill="#D5D1DA"/>
<circle cx="1.32571" cy="20.1881" r="1.32571" fill="#D5D1DA"/>
<circle cx="14.5826" cy="5.60519" r="1.32571" fill="#D5D1DA"/>
<circle cx="14.5826" cy="20.1881" r="1.32571" fill="#D5D1DA"/>
<circle cx="27.8404" cy="5.60519" r="1.32571" fill="#D5D1DA"/>
<circle cx="27.8404" cy="20.1881" r="1.32571" fill="#D5D1DA"/>
<circle cx="1.32571" cy="34.7709" r="1.32571" fill="#D5D1DA"/>
<circle cx="14.5826" cy="34.7709" r="1.32571" fill="#D5D1DA"/>
<circle cx="27.8404" cy="34.7709" r="1.32571" fill="#D5D1DA"/>
<circle cx="1.32571" cy="49.3537" r="1.32571" fill="#D5D1DA"/>
<circle cx="1.32571" cy="62.6109" r="1.32571" fill="#D5D1DA"/>
<circle cx="14.5826" cy="49.3537" r="1.32571" fill="#D5D1DA"/>
<circle cx="14.5826" cy="62.6109" r="1.32571" fill="#D5D1DA"/>
<circle cx="27.8404" cy="49.3537" r="1.32571" fill="#D5D1DA"/>
<circle cx="27.8404" cy="62.6109" r="1.32571" fill="#D5D1DA"/>
<circle cx="1.32571" cy="75.8681" r="1.32571" fill="#D5D1DA"/>
<circle cx="14.5826" cy="75.8681" r="1.32571" fill="#D5D1DA"/>
<circle cx="27.8404" cy="75.8681" r="1.32571" fill="#D5D1DA"/>
<circle cx="41.0972" cy="49.3537" r="1.32571" fill="#D5D1DA"/>
<circle cx="41.0972" cy="62.6109" r="1.32571" fill="#D5D1DA"/>
<circle cx="54.3545" cy="49.3537" r="1.32571" fill="#D5D1DA"/>
<circle cx="54.3545" cy="62.6109" r="1.32571" fill="#D5D1DA"/>
<circle cx="67.6114" cy="49.3537" r="1.32571" fill="#D5D1DA"/>
<circle cx="67.6114" cy="62.6109" r="1.32571" fill="#D5D1DA"/>
<circle cx="41.0972" cy="75.8681" r="1.32571" fill="#D5D1DA"/>
<circle cx="54.3545" cy="75.8681" r="1.32571" fill="#D5D1DA"/>
<circle cx="67.6114" cy="75.8681" r="1.32571" fill="#D5D1DA"/>
<circle cx="41.0972" cy="5.60519" r="1.32571" fill="#D5D1DA"/>
<circle cx="41.0972" cy="20.1881" r="1.32571" fill="#D5D1DA"/>
<circle cx="54.3545" cy="5.60519" r="1.32571" fill="#D5D1DA"/>
<circle cx="54.3545" cy="20.1881" r="1.32571" fill="#D5D1DA"/>
<circle cx="67.6114" cy="5.60519" r="1.32571" fill="#D5D1DA"/>
<circle cx="67.6114" cy="20.1881" r="1.32571" fill="#D5D1DA"/>
<circle cx="41.0972" cy="34.7709" r="1.32571" fill="#D5D1DA"/>
<circle cx="54.3545" cy="34.7709" r="1.32571" fill="#D5D1DA"/>
<circle cx="67.6114" cy="34.7709" r="1.32571" fill="#D5D1DA"/>
<path d="M586.552 49.1955H553.91V96.2079H586.552V49.1955Z" fill="#9C9595"/>
<path d="M539.558 57.4333L600.881 57.4333V46.8278L539.558 46.8278V57.4333Z" fill="#DDDDDD"/>
<g opacity="0.8">
<path d="M600.972 39.5398H539.649V46.8212H600.972V39.5398Z" fill="#ACA4A4"/>
</g>
<path d="M570.231 240.095C618.013 240.095 656.748 201.4 656.748 153.668C656.748 105.935 618.013 67.2407 570.231 67.2407C522.449 67.2407 483.714 105.935 483.714 153.668C483.714 201.4 522.449 240.095 570.231 240.095Z" fill="#F9F9F9"/>
<g opacity="0.1">
<path d="M605.251 213.818C548.84 213.818 501.62 174.087 490.211 121.06C486.091 131.19 483.873 142.112 483.873 153.668C483.873 201.313 522.536 240.095 570.39 240.095C596.694 240.095 620.304 228.223 636.15 209.703C626.325 212.394 616.026 213.818 605.251 213.818Z" fill="#D0D0D0"/>
</g>
<path d="M570.231 244.21C520.318 244.21 479.753 203.688 479.753 153.826C479.753 103.964 520.318 63.4417 570.231 63.4417C620.145 63.4417 660.71 103.964 660.71 153.826C660.71 203.688 620.145 244.21 570.231 244.21ZM570.231 71.5146C524.755 71.5146 487.834 108.396 487.834 153.826C487.834 199.255 524.755 236.137 570.231 236.137C615.708 236.137 652.629 199.255 652.629 153.826C652.629 108.396 615.708 71.5146 570.231 71.5146Z" fill="#DDDDDD"/>
<path d="M572.133 75.6302H568.33V85.6025H572.133V75.6302Z" fill="#ACA4A4"/>
<path d="M570.548 222.208H566.745V232.18H570.548V222.208Z" fill="#ACA4A4"/>
<path d="M501.936 152.085H491.954V155.884H501.936V152.085Z" fill="#ACA4A4"/>
<path d="M648.508 152.085H638.525V155.884H648.508V152.085Z" fill="#ACA4A4"/>
<path d="M516.214 97.2651L513.525 99.9514L520.584 107.003L523.273 104.317L516.214 97.2651Z" fill="#ACA4A4"/>
<path d="M620.026 200.881L617.337 203.567L624.396 210.619L627.085 207.932L620.026 200.881Z" fill="#ACA4A4"/>
<path d="M520.511 200.932L513.453 207.983L516.142 210.669L523.2 203.618L520.511 200.932Z" fill="#ACA4A4"/>
<path d="M624.353 97.3393L617.294 104.391L619.983 107.077L627.042 100.026L624.353 97.3393Z" fill="#ACA4A4"/>
<path fill-rule="evenodd" clip-rule="evenodd" d="M609.809 118.462C609.237 118.337 608.954 118.22 608.67 118.22C606.342 118.213 604.016 118.203 601.688 118.203C599.315 118.203 596.943 118.215 594.572 118.259C593.965 118.271 593.213 118.828 592.805 119.344C591.429 121.079 576.222 141.978 574.916 143.768C572.601 146.943 570.281 150.112 567.561 153.832C561.457 145.317 555.706 137.245 555.706 137.245H539.537C539.537 137.245 554.038 157.344 561.21 167.295C562.819 169.528 565.314 170.644 567.805 170.644C570.291 170.644 572.777 169.535 574.389 167.312C586.196 151.029 598 134.747 609.807 118.464L609.809 118.462Z" fill="#CA273A"/>
<path opacity="0.2" d="M256.135 436C139.704 436 45.3184 428.017 45.3184 418.17C45.3184 408.322 139.704 400.34 256.135 400.34C372.565 400.34 466.951 408.322 466.951 418.17C466.951 428.017 372.565 436 256.135 436Z" fill="#C5C5C5"/>
<path d="M243.056 143.05C223.752 143.05 208.103 127.377 208.103 108.045C208.103 88.7119 223.752 73.0397 243.056 73.0397C262.36 73.0397 278.009 88.7119 278.009 108.045C278.009 127.377 262.36 143.05 243.056 143.05Z" fill="#DBDBDB"/>
<path d="M243.055 167.164C243.573 167.164 244.091 166.646 244.091 166.127V93.5241C244.091 93.0055 243.573 92.4869 243.055 92.4869C242.537 92.4869 242.02 93.0055 242.02 93.5241V165.868C242.02 166.646 242.537 167.164 243.055 167.164Z" fill="#B8B8B8"/>
<path d="M242.796 123.602C243.055 123.602 243.314 123.602 243.573 123.343C244.091 122.824 244.091 122.306 243.573 121.787L224.673 102.859C224.155 102.34 223.637 102.34 223.119 102.859C222.601 103.377 222.601 103.896 223.119 104.414L242.02 123.343C242.279 123.602 242.537 123.602 242.796 123.602Z" fill="#B8B8B8"/>
<path d="M243.055 136.567C243.314 136.567 243.573 136.567 243.832 136.308L262.733 117.379C263.251 116.861 263.251 116.342 262.733 115.824C262.215 115.305 261.697 115.305 261.179 115.824L242.279 134.752C241.761 135.271 241.761 135.789 242.279 136.308C242.538 136.308 242.797 136.567 243.055 136.567Z" fill="#B8B8B8"/>
<path d="M259.626 188.426H226.226L218.718 148.495H267.134L259.626 188.426Z" fill="#EEEEEE"/>
<g opacity="0.5">
<path d="M357.494 197.243H278.009L288.883 134.493H374.324L364.485 191.279C363.708 194.909 360.86 197.243 357.494 197.243Z" fill="#423B4F"/>
<path d="M358.271 197.243H273.089L284.222 133.986H369.145L358.271 197.243Z" fill="#8C819F"/>
<path d="M279.303 190.76H351.281H364.485L363.191 197.242H230.11L227.262 190.76H279.303Z" fill="#574F66"/>
<path d="M279.303 190.76L288.106 139.42H363.967L354.905 190.76H279.303Z" fill="white"/>
</g>
<path d="M144.67 123.603C140.268 123.084 137.42 119.195 137.938 114.786L139.233 94.0428H157.356L153.473 116.602C152.955 121.01 148.812 124.121 144.67 123.603Z" fill="#EEBCA4"/>
<path d="M149.848 110.378C141.304 109.082 135.349 101.044 136.644 92.4869L139.492 73.5583C140.786 65.0015 148.812 59.0377 157.356 60.3342C165.901 61.6306 171.856 69.6688 170.561 78.2256L167.713 97.1542C166.418 105.711 158.392 111.675 149.848 110.378Z" fill="#EEBCA4"/>
<path d="M274.384 179.87C270.241 175.98 263.769 177.017 258.073 178.055C254.448 178.573 250.823 179.092 246.939 179.351C246.68 178.573 246.681 178.055 246.422 177.277C174.444 179.092 176.774 143.309 145.964 124.899C128.099 114.268 126.287 131.381 127.84 142.531C134.831 191.279 205.255 206.059 249.529 198.798C249.529 198.539 249.529 198.28 249.529 198.02C255.225 197.243 260.662 196.983 266.617 195.946C269.206 195.427 271.795 194.909 273.866 193.353C275.938 191.797 276.973 189.204 276.973 186.871C276.973 184.018 276.196 181.425 274.384 179.87Z" fill="#1A2C2F"/>
<path d="M144.159 198.566L149.949 199.96L98.3141 415.013L92.5241 413.619L144.159 198.566Z" fill="#9C96A3"/>
<path d="M379.79 198.713L431.447 413.766L425.657 415.16L374 200.108L379.79 198.713Z" fill="#9C96A3"/>
<path d="M431 220.244L95.6763 220.244V197.426L431 197.426V220.244Z" fill="#7C7980"/>
<path d="M431 220.28H367V197.28H431V220.28Z" fill="#514D56"/>
<path d="M78.6471 304.072H123.698L121.368 277.624C120.85 270.623 114.636 264.919 107.645 264.919H88.2269C84.861 264.919 81.4952 266.215 79.165 268.808C76.8347 271.401 75.7991 274.513 76.058 278.143L78.6471 304.072ZM117.484 298.109H84.0843L82.2719 277.624C82.013 275.809 82.5308 273.994 83.8254 272.698C84.861 271.401 86.6734 270.623 88.4858 270.623H107.904C111.788 270.623 115.413 273.994 115.672 277.884L117.484 298.109Z" fill="#DBDBDB"/>
<path d="M279.611 368.261L295.662 368.527L295.042 406.121L278.991 405.856L279.611 368.261Z" fill="#EEBCA4"/>
<path d="M278.01 402.605C283.706 402.086 297.946 402.864 297.946 402.864C297.946 402.864 315.034 409.087 317.623 414.533C319.176 417.903 313.998 419.978 310.891 419.719L276.456 415.051L278.01 402.605Z" fill="#2C2C31"/>
<path d="M278.009 402.605C278.009 402.605 290.955 407.532 297.945 402.864C297.686 402.864 295.097 401.827 294.838 401.568C294.838 401.568 284.741 395.345 279.045 395.863C279.045 396.123 278.009 402.864 278.009 402.605Z" fill="#EEBCA4"/>
<path d="M300.794 394.308C303.124 348.412 301.311 311.592 290.696 292.404C275.161 264.4 223.12 245.731 156.321 246.509C156.062 263.104 155.026 279.699 154.25 296.034C239.432 296.553 275.42 282.032 273.608 394.048C280.857 394.308 293.285 394.308 300.794 394.308Z" fill="#2C2C31"/>
<path d="M177.81 296.294C177.81 296.294 135.866 306.925 120.591 301.22C106.35 295.775 95.2173 280.476 95.7351 252.213C96.2529 232.247 177.81 249.88 177.81 249.88V296.294Z" fill="#393941"/>
<path d="M319.739 309.657L331.272 345.435L315.996 350.373L304.463 314.595L319.739 309.657Z" fill="#EEBCA4"/>
<path d="M314.256 347.634C319.435 345.301 333.157 341.411 333.157 341.411C333.157 341.411 351.281 341.93 355.423 346.078C358.013 348.671 353.611 352.302 350.763 353.079L316.846 359.821L314.256 347.634Z" fill="#2C2C31"/>
<path d="M314.257 347.634C314.257 347.634 327.979 348.153 333.157 341.411C332.898 341.411 330.05 341.152 330.05 341.152C330.05 341.152 318.399 338.559 313.221 340.892C312.962 340.892 314.257 347.634 314.257 347.634Z" fill="#EEBCA4"/>
<path d="M332.898 333.31C320.211 289.23 306.748 255.002 290.436 240.223C266.876 218.701 215.093 228.814 155.026 252.928C158.651 262.522 162.016 284.562 162.793 287.933C243.832 260.966 272.83 235.555 307.266 342.126C314.256 339.792 325.907 335.644 332.898 333.31Z" fill="#2D2D32"/>
<path d="M261.561 301.334C267.995 295.464 274.685 289.85 281.633 284.491L280.089 282.449C257.444 256.929 215.241 246.976 157.084 247.741C156.827 264.074 155.798 280.407 155.026 296.485C203.147 296.74 235.313 292.402 254.099 308.48C256.415 305.928 258.988 303.631 261.561 301.334Z" fill="#393941"/>
<path d="M194.121 141.753C193.086 112.193 159.686 111.156 137.678 112.453C118.519 113.49 101.172 122.306 99.1007 158.607C98.8417 163.793 97.0294 189.982 95.217 234.062C94.6992 248.324 94.6992 249.361 94.6992 249.361C94.6992 249.361 153.472 252.732 172.89 251.695C189.72 250.657 200.076 248.324 200.076 248.324L194.121 141.753Z" fill="#C2081E"/>
<path d="M317.104 184.278C317.104 181.944 316.328 179.351 314.515 177.795C310.373 173.906 303.9 174.943 298.204 175.98C283.187 178.573 267.652 178.314 253.153 174.165C229.333 167.683 209.397 151.606 190.497 135.53C188.684 133.974 187.131 132.419 185.06 131.122C182.729 129.826 181.953 131.122 180.917 133.456C179.105 137.864 178.587 142.79 178.328 147.458C178.069 150.31 178.069 153.422 179.105 156.014C180.399 159.126 182.729 161.2 185.318 163.275C202.924 178.573 273.866 197.761 287.33 195.946C293.802 195.168 299.757 194.909 306.23 193.612C308.819 193.094 311.408 192.575 313.48 191.019C316.069 189.204 317.104 186.871 317.104 184.278Z" fill="#EEBCA4"/>
<path d="M168.231 140.457C166.677 129.048 168.489 111.934 186.354 122.825C217.165 141.235 214.835 177.277 286.812 175.202C289.142 183.5 289.401 189.723 289.919 196.465C245.645 203.725 175.221 188.945 168.231 140.457Z" fill="#214D53"/>
<path d="M169.007 304.072H214.058L211.727 277.624C211.21 270.623 204.996 264.919 198.005 264.919H178.587C175.221 264.919 171.855 266.215 169.525 268.808C167.195 271.401 166.159 274.513 166.418 278.143L169.007 304.072ZM207.844 298.109H174.444L172.632 277.624C172.373 275.809 172.891 273.994 174.185 272.698C175.221 271.401 177.033 270.623 178.846 270.623H198.264C202.148 270.623 205.772 273.994 206.031 277.884L207.844 298.109Z" fill="#E4E0EA"/>
<path d="M164.347 261.548H84.6022L75.5403 157.57H155.285C161.24 157.57 166.418 157.57 166.418 157.57L175.998 261.548C175.998 261.548 170.302 261.548 164.347 261.548Z" fill="#B0ADB4"/>
<path d="M215.353 316H170.043L168.231 295.775H213.54L215.353 316Z" fill="#B0ADB4"/>
<path d="M156.71 388.922L157.887 402.354L151.955 402.876L150.778 389.444L156.71 388.922Z" fill="#958DA2"/>
<path d="M149.64 305.509L157.077 390.751L151.145 391.27L143.708 306.028L149.64 305.509Z" fill="#9C96A3"/>
<path d="M124.215 400.531L129.911 400.012L129.393 393.789H179.104L179.622 400.531L185.577 400.012L184.541 388.084H123.179L124.215 400.531Z" fill="#DBDBDB"/>
<path d="M135.349 407.013C135.867 411.421 132.501 415.051 127.84 415.051C123.439 415.051 119.296 411.421 119.037 407.013C118.52 402.605 121.885 398.975 126.546 398.975C131.206 398.975 135.09 402.346 135.349 407.013Z" fill="#7C7980"/>
<path d="M191.274 407.013C191.791 411.421 188.426 415.051 183.765 415.051C179.364 415.051 175.221 411.421 174.962 407.013C174.444 402.605 177.81 398.975 182.471 398.975C186.872 398.716 191.015 402.346 191.274 407.013Z" fill="#7C7980"/>
<path d="M163.57 407.013C164.088 411.421 160.722 415.051 156.062 415.051C151.401 415.051 147.517 411.421 147.259 407.013C147 402.605 150.107 398.975 154.767 398.975C159.168 398.716 163.311 402.346 163.57 407.013Z" fill="#7C7980"/>
<path d="M118.936 260.844L126.26 302.418L120.328 302.669L112.968 260.844L118.936 260.844Z" fill="#545058"/>
<path d="M165.124 261.548H74.5045L65.4426 157.311H156.062L165.124 261.548Z" fill="#DBDBDB"/>
<path d="M151 141.5C137 142.525 132.227 142.651 126.013 132.02C121.094 123.722 124.433 75.3866 131.942 65.7927C140.227 55.1615 161.199 56.7173 172.332 62.6811C178.546 66.052 180.617 74.868 175.18 80.0539C172.85 82.3876 170.002 83.6841 166.895 84.9806C163.529 86.5364 166.795 117.129 165.5 120.5C173.484 113.772 166.017 140.401 151 141.5Z" fill="#393941"/>
<path d="M170.043 316H79.165L77.6115 295.775H168.231L170.043 316Z" fill="#7C7980"/>
<g clip-path="url(#clip0)">
<path fill-rule="evenodd" clip-rule="evenodd" d="M350.933 153.163C350.538 153.717 349.921 154.035 349.24 154.035C348.567 154.035 347.933 153.707 347.544 153.158C347.477 153.064 347.406 152.964 347.333 152.86C346.367 154.187 345.417 155.524 344.462 156.859C344.29 157.099 344.125 157.343 343.938 157.612C344.032 157.639 344.083 157.666 344.133 157.666C345.018 157.669 345.903 157.673 346.787 157.661C346.881 157.66 347.003 157.586 347.061 157.507C347.681 156.661 348.29 155.806 348.907 154.957C349.001 154.828 349.119 154.717 349.237 154.585C349.295 154.656 349.32 154.683 349.341 154.712C349.994 155.616 350.65 156.519 351.297 157.427C351.417 157.594 351.546 157.677 351.761 157.674C352.57 157.662 353.379 157.67 354.189 157.668C354.287 157.668 354.385 157.651 354.539 157.636C353.385 156.026 352.259 154.455 351.132 152.883L350.933 153.163Z" fill="#396E75"/>
<path fill-rule="evenodd" clip-rule="evenodd" d="M357.147 143.482C357.039 143.458 356.986 143.436 356.933 143.436C356.495 143.434 356.057 143.432 355.619 143.432C355.172 143.432 354.725 143.435 354.279 143.443C354.165 143.446 354.023 143.552 353.947 143.651C353.687 143.983 350.825 147.987 350.579 148.33C350.144 148.938 349.707 149.546 349.195 150.258C348.046 148.627 346.963 147.08 346.963 147.08H343.92C343.92 147.08 346.649 150.931 347.999 152.837C348.302 153.265 348.772 153.479 349.241 153.479C349.709 153.479 350.177 153.266 350.48 152.841C352.702 149.721 354.924 146.602 357.147 143.482L357.147 143.482Z" fill="#CA273A"/>
</g>
<circle cx="502.056" cy="283.147" r="1.32571" fill="#D5D1DA"/>
<circle cx="502.056" cy="297.73" r="1.32571" fill="#D5D1DA"/>
<circle cx="515.313" cy="283.147" r="1.32571" fill="#D5D1DA"/>
<circle cx="515.313" cy="297.73" r="1.32571" fill="#D5D1DA"/>
<circle cx="528.57" cy="283.147" r="1.32571" fill="#D5D1DA"/>
<circle cx="528.57" cy="297.73" r="1.32571" fill="#D5D1DA"/>
<circle cx="502.056" cy="312.312" r="1.32571" fill="#D5D1DA"/>
<circle cx="515.313" cy="312.312" r="1.32571" fill="#D5D1DA"/>
<circle cx="528.57" cy="312.312" r="1.32571" fill="#D5D1DA"/>
<circle cx="502.056" cy="326.895" r="1.32571" fill="#D5D1DA"/>
<circle cx="502.056" cy="340.152" r="1.32571" fill="#D5D1DA"/>
<circle cx="515.313" cy="326.895" r="1.32571" fill="#D5D1DA"/>
<circle cx="515.313" cy="340.152" r="1.32571" fill="#D5D1DA"/>
<circle cx="528.57" cy="326.895" r="1.32571" fill="#D5D1DA"/>
<circle cx="528.57" cy="340.152" r="1.32571" fill="#D5D1DA"/>
<circle cx="502.056" cy="353.41" r="1.32571" fill="#D5D1DA"/>
<circle cx="515.313" cy="353.41" r="1.32571" fill="#D5D1DA"/>
<circle cx="528.57" cy="353.41" r="1.32571" fill="#D5D1DA"/>
<circle cx="541.828" cy="326.895" r="1.32571" fill="#D5D1DA"/>
<circle cx="541.828" cy="340.152" r="1.32571" fill="#D5D1DA"/>
<circle cx="555.084" cy="326.895" r="1.32571" fill="#D5D1DA"/>
<circle cx="555.084" cy="340.152" r="1.32571" fill="#D5D1DA"/>
<circle cx="568.341" cy="326.895" r="1.32571" fill="#D5D1DA"/>
<circle cx="568.341" cy="340.152" r="1.32571" fill="#D5D1DA"/>
<circle cx="541.828" cy="353.41" r="1.32571" fill="#D5D1DA"/>
<circle cx="555.084" cy="353.41" r="1.32571" fill="#D5D1DA"/>
<circle cx="568.341" cy="353.41" r="1.32571" fill="#D5D1DA"/>
<circle cx="541.828" cy="283.147" r="1.32571" fill="#D5D1DA"/>
<circle cx="541.828" cy="297.73" r="1.32571" fill="#D5D1DA"/>
<circle cx="555.084" cy="283.147" r="1.32571" fill="#D5D1DA"/>
<circle cx="555.084" cy="297.73" r="1.32571" fill="#D5D1DA"/>
<circle cx="568.341" cy="283.147" r="1.32571" fill="#D5D1DA"/>
<circle cx="568.341" cy="297.73" r="1.32571" fill="#D5D1DA"/>
<circle cx="541.828" cy="312.312" r="1.32571" fill="#D5D1DA"/>
<circle cx="555.084" cy="312.312" r="1.32571" fill="#D5D1DA"/>
<circle cx="568.341" cy="312.312" r="1.32571" fill="#D5D1DA"/>
<circle cx="580.326" cy="283.147" r="1.32571" fill="#D5D1DA"/>
<circle cx="580.326" cy="297.73" r="1.32571" fill="#D5D1DA"/>
<circle cx="593.583" cy="283.147" r="1.32571" fill="#D5D1DA"/>
<circle cx="593.583" cy="297.73" r="1.32571" fill="#D5D1DA"/>
<circle cx="606.84" cy="283.147" r="1.32571" fill="#D5D1DA"/>
<circle cx="606.84" cy="297.73" r="1.32571" fill="#D5D1DA"/>
<circle cx="580.326" cy="312.312" r="1.32571" fill="#D5D1DA"/>
<circle cx="593.583" cy="312.312" r="1.32571" fill="#D5D1DA"/>
<circle cx="606.84" cy="312.312" r="1.32571" fill="#D5D1DA"/>
<circle cx="580.326" cy="326.895" r="1.32571" fill="#D5D1DA"/>
<circle cx="580.326" cy="340.152" r="1.32571" fill="#D5D1DA"/>
<circle cx="593.583" cy="326.895" r="1.32571" fill="#D5D1DA"/>
<circle cx="593.583" cy="340.152" r="1.32571" fill="#D5D1DA"/>
<circle cx="606.84" cy="326.895" r="1.32571" fill="#D5D1DA"/>
<circle cx="606.84" cy="340.152" r="1.32571" fill="#D5D1DA"/>
<circle cx="580.326" cy="353.41" r="1.32571" fill="#D5D1DA"/>
<circle cx="593.583" cy="353.41" r="1.32571" fill="#D5D1DA"/>
<circle cx="606.84" cy="353.41" r="1.32571" fill="#D5D1DA"/>
<circle cx="620.098" cy="326.895" r="1.32571" fill="#D5D1DA"/>
<circle cx="620.098" cy="340.152" r="1.32571" fill="#D5D1DA"/>
<circle cx="633.354" cy="326.895" r="1.32571" fill="#D5D1DA"/>
<circle cx="633.354" cy="340.152" r="1.32571" fill="#D5D1DA"/>
<circle cx="646.611" cy="326.895" r="1.32571" fill="#D5D1DA"/>
<circle cx="646.611" cy="340.152" r="1.32571" fill="#D5D1DA"/>
<circle cx="620.098" cy="353.41" r="1.32571" fill="#D5D1DA"/>
<circle cx="633.354" cy="353.41" r="1.32571" fill="#D5D1DA"/>
<circle cx="646.611" cy="353.41" r="1.32571" fill="#D5D1DA"/>
<circle cx="620.098" cy="283.147" r="1.32571" fill="#D5D1DA"/>
<circle cx="620.098" cy="297.73" r="1.32571" fill="#D5D1DA"/>
<circle cx="633.354" cy="283.147" r="1.32571" fill="#D5D1DA"/>
<circle cx="633.354" cy="297.73" r="1.32571" fill="#D5D1DA"/>
<circle cx="646.611" cy="283.147" r="1.32571" fill="#D5D1DA"/>
<circle cx="646.611" cy="297.73" r="1.32571" fill="#D5D1DA"/>
<circle cx="620.098" cy="312.312" r="1.32571" fill="#D5D1DA"/>
<circle cx="633.354" cy="312.312" r="1.32571" fill="#D5D1DA"/>
<circle cx="646.611" cy="312.312" r="1.32571" fill="#D5D1DA"/>
<defs>
<clipPath id="clip0">
<rect width="13.5542" height="14.6837" fill="white" transform="translate(343.752 143.375)"/>
</clipPath>
</defs>
</svg>
