<svg xmlns="http://www.w3.org/2000/svg" xmlns:xlink="http://www.w3.org/1999/xlink" width="940" height="382.48" viewBox="0 0 940 382.48">
  <defs>
    <linearGradient id="91cc3c11-3937-4b0f-b393-27db1a7ce938" x1="150.72" y1="219.5" x2="189.56" y2="262.34" gradientUnits="userSpaceOnUse">
      <stop offset="0" stop-color="#6e7075"/>
      <stop offset="0.06" stop-color="#696b71"/>
      <stop offset="0.4" stop-color="#54545e"/>
      <stop offset="0.72" stop-color="#474652"/>
      <stop offset="1" stop-color="#43414e"/>
    </linearGradient>
    <linearGradient id="7698ba93-8511-49a8-84d9-9b75767543ac" x1="128.43" y1="274.55" x2="108.66" y2="296.47" gradientUnits="userSpaceOnUse">
      <stop offset="0" stop-color="#5333ed" stop-opacity="0.4"/>
      <stop offset="1" stop-color="#2cd4d9" stop-opacity="0"/>
    </linearGradient>
    <linearGradient id="5da63147-9e07-43b3-930a-aa1b4e859290" x1="170.58" y1="227.1" x2="225.33" y2="260.6" gradientUnits="userSpaceOnUse">
      <stop offset="0" stop-color="#351812"/>
      <stop offset="0.19" stop-color="#48281f"/>
      <stop offset="0.48" stop-color="#5f3c2e"/>
      <stop offset="0.76" stop-color="#6d4838"/>
      <stop offset="1" stop-color="#724c3b"/>
    </linearGradient>
    <linearGradient id="43f9fbbb-7db2-4b72-a27c-44d376e62bc5" x1="324.2" y1="220.46" x2="327.53" y2="309.79" xlink:href="#5da63147-9e07-43b3-930a-aa1b4e859290"/>
    <linearGradient id="f022c056-c835-4c5a-a8e9-659e0518e816" x1="402.72" y1="295.41" x2="276.06" y2="219.41" gradientUnits="userSpaceOnUse">
      <stop offset="0" stop-color="#150773"/>
      <stop offset="0" stop-color="#170974"/>
      <stop offset="0.12" stop-color="#50499a"/>
      <stop offset="0.2" stop-color="#7371b1"/>
      <stop offset="0.24" stop-color="#8180ba"/>
      <stop offset="0.32" stop-color="#9b9dcb"/>
      <stop offset="0.43" stop-color="#b4b8db"/>
      <stop offset="0.53" stop-color="#c7cee8"/>
      <stop offset="0.65" stop-color="#d4ddf1"/>
      <stop offset="0.79" stop-color="#dde6f6"/>
      <stop offset="1" stop-color="#dfe9f8"/>
    </linearGradient>
    <linearGradient id="998d17df-9a04-4034-b232-d25d8c73b116" x1="225.42" y1="271.33" x2="204.42" y2="321.66" xlink:href="#5da63147-9e07-43b3-930a-aa1b4e859290"/>
    <linearGradient id="5e8e6195-be50-4684-b9a9-291856720e3f" x1="123.14" y1="267.83" x2="183.91" y2="267.83" xlink:href="#5da63147-9e07-43b3-930a-aa1b4e859290"/>
    <linearGradient id="5d0e746b-0153-476a-ac38-53784ecb6d67" x1="254.86" y1="183.93" x2="264.16" y2="135.63" xlink:href="#5da63147-9e07-43b3-930a-aa1b4e859290"/>
    <linearGradient id="e3a6bb91-c6c9-4e83-a424-e5709e7632e0" x1="299.14" y1="171.16" x2="284.69" y2="135.32" xlink:href="#5da63147-9e07-43b3-930a-aa1b4e859290"/>
    <linearGradient id="33efa3c3-b056-4b3d-808d-1b69c4070638" x1="764.49" y1="-166.56" x2="744.91" y2="-168.81" gradientTransform="translate(-412.12 486.3) rotate(-16.15)" xlink:href="#5da63147-9e07-43b3-930a-aa1b4e859290"/>
    <linearGradient id="7e411448-a012-4683-9623-85dfc925281d" x1="232.51" y1="314.07" x2="253.76" y2="229.57" gradientUnits="userSpaceOnUse">
      <stop offset="0" stop-color="#150773"/>
      <stop offset="0.05" stop-color="#2e2384"/>
      <stop offset="0.13" stop-color="#57519f"/>
      <stop offset="0.23" stop-color="#7c7ab7"/>
      <stop offset="0.32" stop-color="#9b9ccb"/>
      <stop offset="0.42" stop-color="#b4b8db"/>
      <stop offset="0.53" stop-color="#c7cee8"/>
      <stop offset="0.65" stop-color="#d4ddf1"/>
      <stop offset="0.79" stop-color="#dde6f6"/>
      <stop offset="1" stop-color="#dfe9f8"/>
    </linearGradient>
  </defs>
  <title>kinsta-vs-others-free-migrations</title>
  <g id="c02014f9-70fd-4577-a6e2-9e4451ba2bfd" data-name="figures and interactions">
    <polygon points="204.48 158.84 314.78 222.52 314.78 122.01 204.48 58.33 204.48 158.84" style="fill: none;stroke: #2cd4d9;stroke-miterlimit: 10;opacity: 0.5"/>
    <g>
      <g>
        <polygon points="233.06 251.97 149.8 300.04 98.26 270 98.26 266.19 181.51 218.12 233.06 248.04 233.06 251.97" style="fill: #43414e"/>
        <polygon points="233.06 248.04 149.8 296.11 98.26 266.19 181.51 218.12 233.06 248.04" style="fill: #6e7075"/>
        <polygon points="181.7 151.17 183.67 152.32 181.7 218.01 100.23 267.33 98.26 266.19 98.26 199.35 181.7 151.17" style="fill: #43414e"/>
        <polygon points="183.67 152.32 183.49 219.26 100.23 267.33 100.23 200.49 183.67 152.32" style="fill: url(#91cc3c11-3937-4b0f-b393-27db1a7ce938)"/>
        <polygon points="205.1 260.03 174.43 277.73 155.44 266.71 186.11 249.01 205.1 260.03" style="fill: #84828e"/>
        <polygon points="184.58 247.86 153.91 265.56 149.11 262.81 179.78 245.1 184.58 247.86" style="fill: #43414e"/>
        <polygon points="182.37 243.59 186.65 241.13 191.44 243.89 187.17 246.35 182.37 243.59" style="fill: #43414e"/>
        <polygon points="190.27 231.92 196.34 228.44 201.13 231.21 195.07 234.67 190.27 231.92" style="fill: #43414e"/>
        <polygon points="177.74 224.71 183.8 221.23 188.59 223.99 182.54 227.46 177.74 224.71" style="fill: #43414e"/>
        <polygon points="118.2 273.29 126.78 268.39 131.57 271.15 123 276.05 118.2 273.29" style="fill: #43414e"/>
        <polygon points="112.1 269.57 123.24 263.29 128.03 266.05 116.9 272.33 112.1 269.57" style="fill: #43414e"/>
        <polygon points="105.85 266.21 114.43 261.31 119.22 264.07 110.65 268.96 105.85 266.21" style="fill: #43414e"/>
        <polygon points="193.64 237.14 197.91 234.67 202.7 237.43 198.44 239.9 193.64 237.14" style="fill: #43414e"/>
        <polygon points="187.97 240.41 192.25 237.94 197.04 240.7 192.77 243.16 187.97 240.41" style="fill: #43414e"/>
        <polygon points="161.94 248.07 166.22 245.6 171.01 248.36 166.74 250.82 161.94 248.07" style="fill: #43414e"/>
        <polygon points="184.57 235.05 188.84 232.58 193.64 235.34 189.37 237.81 184.57 235.05" style="fill: #43414e"/>
        <polygon points="178.91 238.32 183.18 235.85 187.97 238.61 183.71 241.07 178.91 238.32" style="fill: #43414e"/>
        <polygon points="173.21 241.62 177.48 239.15 182.27 241.91 178.01 244.37 173.21 241.62" style="fill: #43414e"/>
        <polygon points="167.55 244.88 171.82 242.41 176.61 245.18 172.35 247.64 167.55 244.88" style="fill: #43414e"/>
        <polygon points="133.8 264.37 138.08 261.9 142.87 264.66 138.6 267.12 133.8 264.37" style="fill: #43414e"/>
        <polygon points="128.22 267.6 132.49 265.13 137.28 267.9 133.01 270.36 128.22 267.6" style="fill: #43414e"/>
        <polygon points="156.43 251.35 160.7 248.88 165.49 251.64 161.23 254.1 156.43 251.35" style="fill: #43414e"/>
        <polygon points="150.77 254.62 155.04 252.15 159.83 254.91 155.57 257.37 150.77 254.62" style="fill: #43414e"/>
        <polygon points="145.07 257.91 149.34 255.45 154.13 258.21 149.87 260.67 145.07 257.91" style="fill: #43414e"/>
        <polygon points="139.41 261.18 143.68 258.71 148.47 261.47 144.21 263.94 139.41 261.18" style="fill: #43414e"/>
        <polygon points="158.58 242.94 162.86 240.48 167.65 243.24 163.38 245.7 158.58 242.94" style="fill: #43414e"/>
        <polygon points="181.21 229.93 185.48 227.46 190.27 230.22 186.01 232.68 181.21 229.93" style="fill: #43414e"/>
        <polygon points="175.55 233.2 179.82 230.73 184.61 233.49 180.35 235.95 175.55 233.2" style="fill: #43414e"/>
        <polygon points="169.85 236.49 174.12 234.03 178.91 236.79 174.65 239.25 169.85 236.49" style="fill: #43414e"/>
        <polygon points="164.19 239.76 168.46 237.29 173.25 240.05 168.99 242.51 164.19 239.76" style="fill: #43414e"/>
        <polygon points="130.44 259.24 134.71 256.77 139.5 259.54 135.24 262 130.44 259.24" style="fill: #43414e"/>
        <polygon points="124.85 262.48 129.13 260.01 133.92 262.77 129.65 265.24 124.85 262.48" style="fill: #43414e"/>
        <polygon points="153.07 246.23 157.34 243.76 162.13 246.52 157.87 248.98 153.07 246.23" style="fill: #43414e"/>
        <polygon points="147.41 249.49 151.68 247.03 156.47 249.79 152.21 252.25 147.41 249.49" style="fill: #43414e"/>
        <polygon points="141.71 252.79 145.98 250.32 150.77 253.08 146.5 255.55 141.71 252.79" style="fill: #43414e"/>
        <polygon points="136.04 256.06 140.32 253.59 145.11 256.35 140.84 258.81 136.04 256.06" style="fill: #43414e"/>
        <polygon points="149.49 240.97 153.76 238.5 158.55 241.26 154.29 243.72 149.49 240.97" style="fill: #43414e"/>
        <polygon points="172.12 227.95 176.39 225.48 181.18 228.24 176.91 230.71 172.12 227.95" style="fill: #43414e"/>
        <polygon points="166.45 231.22 170.73 228.75 175.52 231.51 171.25 233.97 166.45 231.22" style="fill: #43414e"/>
        <polygon points="160.75 234.51 165.03 232.05 169.82 234.81 165.55 237.27 160.75 234.51" style="fill: #43414e"/>
        <polygon points="155.09 237.78 159.36 235.31 164.15 238.07 159.89 240.54 155.09 237.78" style="fill: #43414e"/>
        <polygon points="121.35 257.26 125.62 254.8 130.41 257.56 126.15 260.02 121.35 257.26" style="fill: #43414e"/>
        <polygon points="115.76 260.5 120.03 258.04 124.82 260.8 120.56 263.26 115.76 260.5" style="fill: #43414e"/>
        <polygon points="143.97 244.25 148.25 241.78 153.04 244.54 148.77 247 143.97 244.25" style="fill: #43414e"/>
        <polygon points="138.31 247.52 142.59 245.05 147.38 247.81 143.11 250.27 138.31 247.52" style="fill: #43414e"/>
        <polygon points="132.61 250.81 136.88 248.34 141.67 251.11 137.41 253.57 132.61 250.81" style="fill: #43414e"/>
        <polygon points="126.95 254.08 131.22 251.61 136.01 254.37 131.75 256.83 126.95 254.08" style="fill: #43414e"/>
        <polygon points="143.39 266.07 147.66 263.61 152.45 266.37 148.19 268.83 143.39 266.07" style="fill: #43414e"/>
        <polygon points="137.72 269.34 142 266.87 146.79 269.63 142.52 272.1 137.72 269.34" style="fill: #43414e"/>
        <polygon points="132.02 272.64 136.3 270.17 141.09 272.93 136.82 275.39 132.02 272.64" style="fill: #43414e"/>
        <polygon points="126.36 275.9 130.63 273.44 135.43 276.2 131.16 278.66 126.36 275.9" style="fill: #43414e"/>
        <polygon points="181.8 217.73 102.56 263.47 102.56 201.92 181.8 156.19 181.8 217.73" style="fill: #dfe9f8"/>
        <polygon points="181.8 173.39 102.56 219.12 102.56 201.92 181.8 156.19 181.8 173.39" style="fill: #fff"/>
        <polygon points="125.01 231.2 112.34 238.55 112.34 221.35 125.01 214 125.01 231.2" style="fill: #2cd4d9"/>
        <polygon points="128.92 233.01 108.43 244.89 108.43 243.11 128.92 231.23 128.92 233.01" style="fill: #fff"/>
        <polygon points="128.92 236.27 108.43 248.16 108.43 246.38 128.92 234.5 128.92 236.27" style="fill: #fff"/>
        <polygon points="153.15 214.92 140.48 222.27 140.48 205.07 153.15 197.72 153.15 214.92" style="fill: #5333ed"/>
        <polygon points="157.06 216.73 136.57 228.62 136.57 226.84 157.06 214.95 157.06 216.73" style="fill: #fff"/>
        <polygon points="163.94 174.49 122.01 198.75 122.01 196.98 163.94 172.71 163.94 174.49" style="fill: #2cd4d9"/>
        <polygon points="156.12 182.48 129.37 197.94 129.37 196.16 156.12 180.71 156.12 182.48" style="fill: #2cd4d9"/>
        <polygon points="157.06 220 136.57 231.88 136.57 230.11 157.06 218.22 157.06 220" style="fill: #fff"/>
        <polygon points="177.44 205.74 163.94 213.57 163.94 211.79 177.44 203.96 177.44 205.74" style="fill: #fff"/>
        <polygon points="177.44 209 163.94 216.83 163.94 215.06 177.44 207.23 177.44 209" style="fill: #fff"/>
      </g>
      <polygon points="98.26 270 76.12 283.37 126.95 312.72 149.8 300.04 98.26 270" style="fill: url(#7698ba93-8511-49a8-84d9-9b75767543ac)"/>
    </g>
    <polygon points="186.05 194.62 173.38 201.97 173.38 184.77 186.05 177.42 186.05 194.62" style="fill: #2cd4d9"/>
    <polygon points="215.91 171.56 179.1 192.91 179.1 142.94 215.91 121.58 215.91 171.56" style="fill: none;stroke: #2cd4d9;stroke-miterlimit: 10"/>
    <polygon points="344.75 142.9 455.05 206.58 455.05 106.08 344.75 42.39 344.75 142.9" style="fill: none;stroke: #bbd0f2;stroke-miterlimit: 10"/>
    <polygon points="497.47 237.75 456 261.69 456 223.91 497.47 199.98 497.47 237.75" style="fill: none;stroke: #5333ed;stroke-miterlimit: 10;opacity: 0.7000000000000001"/>
    <polygon points="697.13 131.34 655.67 155.28 655.67 117.5 697.13 93.56 697.13 131.34" style="fill: none;stroke: #bbd0f2;stroke-miterlimit: 10;opacity: 0.4"/>
    <polygon points="676.4 124.85 566.36 188.38 566.36 88.12 676.4 24.59 676.4 124.85" style="fill: none;stroke: #5333ed;stroke-miterlimit: 10;opacity: 0.5"/>
    <polygon points="474.85 234.87 548.88 277.61 548.88 210.16 474.85 167.42 474.85 234.87" style="fill: none;stroke: #bbd0f2;stroke-miterlimit: 10;opacity: 0.6000000000000001"/>
    <g>
      <path d="M226.4,261.93s-19.35,7.9-31.4,3.5-8-6.65-13.1-7.6,2-4.31,7.73-1.16,13.44-.56,13.44-.56-11-4.9-16.76-11.91l-4.79-4.76s-5.49,2.81-9.09,1.43a.64.64,0,0,1-.09-1.16l9.27-5.14a1.72,1.72,0,0,1,1.44-.1l11,5.07-6.92-8.82s-6.11,3.5-10.78,2.2a.67.67,0,0,1-.17-1.22l1.45-.87a2.06,2.06,0,0,1-1.11-.5.73.73,0,0,1,.09-1.19l10.16-6.1a1.92,1.92,0,0,1,1.85-.07l12.92,6.53L199,224.81a.73.73,0,0,0-1.07-.25l-.62.45a2.22,2.22,0,0,1-2,.32l-1.29-.42a.38.38,0,0,1-.12-.65l4.19-3.36a1.73,1.73,0,0,1,2.37.2c2.27,2.55,7.62,8.31,11.29,10.1,4.77,2.32,15.66,9.22,22.49,19.05Z" style="fill: url(#5da63147-9e07-43b3-930a-aa1b4e859290)"/>
      <circle cx="256.72" cy="73.19" r="20.89" style="fill: #351812"/>
      <circle cx="237.6" cy="85.79" r="10.57" style="fill: #351812"/>
      <circle cx="306.63" cy="70.25" r="10.57" style="fill: #351812"/>
      <circle cx="275.43" cy="54.96" r="10.57" style="fill: #351812"/>
      <circle cx="231.83" cy="92.97" r="6.78" style="fill: #351812"/>
      <circle cx="227.03" cy="94.08" r="4.38" style="fill: #351812"/>
      <g>
        <path d="M350.23,301.74c45.07-9.16,27.42-106.11,27.42-106.11l-34.54,24s8,49.09-1.12,49.09c-22.86,0-71.22-18-71.22-18-2.87-5.93-1.07,16.84-1.07,16.84S326.87,306.48,350.23,301.74Z" style="fill: url(#43f9fbbb-7db2-4b72-a27c-44d376e62bc5)"/>
        <path d="M377.65,195.63l-34.54,24,14.5,34.44c5.67-1.49,16.32-4.1,22-12.55A20,20,0,0,0,381,239,252.57,252.57,0,0,0,377.65,195.63Z" style="fill: #351812"/>
      </g>
      <path d="M239.29,194c.23-.13,75.93-45.65,90.11-53.82l.66-.38,2.21-1.27v0a10.33,10.33,0,0,1,2.86-1.29c14.1-6.05,28.33-4.44,31.92,3.7,7.35,9.28,14.65,47.85,15,59.72s3.35,20.72-2.4,29.27-11.54,12.89-17.21,14.38c0,0-2.75,16.29-9.92,45.94-3.61,14.95-14.71,32.3-37.39,45.4-27.09,15.64-56.84,15.89-65.4,0-6-11.22,1.77-24,0-39.81C246.47,267.65,229,227.36,229,227.36,225.47,215.41,230.32,199.22,239.29,194Z" style="fill: url(#f022c056-c835-4c5a-a8e9-659e0518e816)"/>
      <path d="M365.33,216.32l2.74-2.62s-2.12,24.59-1.37,29a19,19,0,0,1-4.23,1.65S364.84,226,365.33,216.32Z" style="fill: #b1b1dd"/>
      <g>
        <path d="M216.62,357.88c41.83-1,49-75.09,49-75.09l-36.32-14.31s-3.6,54.67-13.34,52.14c-5.75-1.49-32.32-46.22-32.32-46.22-16.8-12.25-11.53,15.35-11.53,15.35S190.5,358.5,216.62,357.88Z" style="fill: url(#998d17df-9a04-4034-b232-d25d8c73b116)"/>
        <path d="M183.65,274.41c-7.35-22.62-30.75-27.59-32.13-27.33-.25,0-.77,1.66.41,3.35L145.57,247s-2.92-2.54-5.34-.62a3,3,0,0,0-.75,4.2l5.57,5.33s-6.5-2.66-8.82-2.75a9.42,9.42,0,0,0-4.29,1.22,1.57,1.57,0,0,0-.8,2.29,27.19,27.19,0,0,0-3.07,1.9,3.32,3.32,0,0,0-.85,3.2,1.59,1.59,0,0,0,2.49.89l2.17-1.59,7.5,5.73-6.84-2-9,4.26a.77.77,0,0,0-.1,1.35c4,2.47,8.82.27,8.82.27l25.3,13.67c6.91,5.42,11.91,4.95,14.51,5.41C186.68,292.37,183.65,274.41,183.65,274.41ZM159,254c0,.09,0,.18,0,.28l-2.24-1.22C158,253.43,159,253.81,159,254Z" style="fill: url(#5e8e6195-be50-4684-b9a9-291856720e3f)"/>
      </g>
      <path d="M238.37,118.77v12.6a2.85,2.85,0,0,0,2.85,2.85h4Z" style="fill: #5b3427"/>
      <path d="M304.92,131s10.3-31.39-.31-61.09-53.8-10.8-61-3.15-15.33,21.37-8.9,45a132.25,132.25,0,0,0,18.67,40.11s4.86,10.74,13.63,4Z" style="fill: url(#5d0e746b-0153-476a-ac38-53784ecb6d67)"/>
      <path d="M315.38,152.44l-12.2-25.06a7.22,7.22,0,0,0-.45-.94c-3.39-5.86-14.36-5.87-24.52,0-9.66,5.58-15.09,14.45-12.68,20.35h0l0,.08a7.22,7.22,0,0,0,.39.8l.07.1,12.54,24.54Z" style="fill: url(#e3a6bb91-c6c9-4e83-a424-e5709e7632e0)"/>
      <path d="M275.16,170.07s12.48-3.52,19.23-13,17.4-15.9,22.35-14.85c0,0,4.51.34,5.71,2.09a10.4,10.4,0,0,0-.88,3.11c-1,6.27-17.17,16.48-27.67,22.23s-19.94,5.53-28.55,8.77C265.34,178.4,270.42,170,275.16,170.07Z" style="fill: #5333ed"/>
      <circle cx="285.74" cy="67.71" r="20.89" style="fill: #351812"/>
      <circle cx="261.59" cy="92.97" r="19.77" style="fill: #351812"/>
      <circle cx="300.09" cy="87.06" r="19.77" style="fill: #351812"/>
      <circle cx="292.76" cy="110.04" r="19.77" style="fill: #351812"/>
      <path d="M234.71,81.18,229.85,93s6.93,0,15.86-11.79L270.9,82.4l8.49-30.3s-8.32-6.48-16.42-3S241.75,60,234.71,75.62Z" style="fill: #351812"/>
      <circle cx="307.36" cy="99.33" r="10.57" style="fill: #351812"/>
      <circle cx="303.85" cy="130.92" r="1.76" style="fill: #351812"/>
      <circle cx="271.89" cy="113.7" r="10.57" style="fill: #351812"/>
      <path d="M255,118.32s-1.84-8,2.46-11.72,10.76-1.61,10,6.68-3.23,15.1-7.1,13.87S255,118.32,255,118.32Z" style="fill: url(#33efa3c3-b056-4b3d-808d-1b69c4070638)"/>
      <path d="M257,110.67s2.47-3.07,4.95-2.17,2.42,5.25,2.42,5.25-2.34-.19-2.87,5.47c-.09.93.3,2.77-.68,3.67s-2.25-1.12-3.15-3.52a4.16,4.16,0,0,0,3-3.94c0-1.84-.75-3.14-2.38-2.66C258.28,112.77,256.23,112,257,110.67Z" style="fill: #5b3427"/>
      <path d="M298.17,135s-8.55-.22-13.39-9.67L307.85,120,304.92,131Z" style="fill: #351812"/>
      <circle cx="299.06" cy="133.49" r="1.76" style="fill: #351812"/>
      <circle cx="302.09" cy="133.08" r="1.76" style="fill: #351812"/>
      <path d="M227.14,289.68a46.73,46.73,0,0,0,9.11,6.81c9.42,5.44,19.36,7.11,26.09,5a158.23,158.23,0,0,0,3.29-18.72l-36.32-14.31S228.65,278.46,227.14,289.68Z" style="fill: #351812"/>
      <path d="M271.1,283.83a12.24,12.24,0,0,0,0-3.51c.11-9.35.29-34.29-.91-36.73-1.48-3-.79-18.76-13.63-29.68l-23.85-13.2s-7.14,11.79-11.32,35.92c-.63,3.66-1.8,21.6-2.09,26.07,0,.32-.05.65-.06,1v0h0c-.15,7.58,6.76,17.12,17.76,23.47,13.61,7.86,28.33,7.86,32.86,0a9.91,9.91,0,0,0,1.18-3.36Z" style="fill: url(#7e411448-a012-4683-9623-85dfc925281d)"/>
    </g>
  </g>
</svg>
